<svg width="5227" height="818" viewBox="0 0 5227 818" fill="none" xmlns="http://www.w3.org/2000/svg">
<path d="M2.00012 2.29599L2 816M2.00012 2.29599L1358.52 2.29599L1228.21 137.301M2.00012 2.29599L54.445 52.808M2 816L1358.52 813.704M2 816L153.283 678.699M1358.52 813.704L1302.54 764.11M1358.52 813.704H5220.53L5224.53 3M54.445 52.808V369.197M54.445 52.808H402.397M54.445 369.197H118.488M54.445 369.197L129.582 381.595H155.049M118.488 369.197V303.99M118.488 369.197L180.515 381.595M118.488 303.99H186.566M118.488 303.99L180.515 328.787M186.566 303.99V238.325M186.566 303.99L240.524 328.787M186.566 238.325H261.199M186.566 238.325L240.524 274.142M261.199 238.325V175.414M261.199 238.325L301.037 274.142M261.199 175.414H325.747M261.199 175.414L301.037 220.875M325.747 175.414V110.208M325.747 175.414L356.508 220.875M325.747 110.208H402.397M325.747 110.208L356.508 171.282M402.397 110.208V52.808M402.397 110.208L416.012 171.282M402.397 52.808L416.012 123.984V139.597M416.012 171.282H356.508M416.012 171.282V139.597M356.508 171.282V220.875M356.508 220.875H301.037M301.037 220.875V274.142M301.037 274.142H240.524M240.524 274.142V328.787M240.524 328.787H180.515M180.515 328.787V381.595M180.515 381.595H155.049M1302.54 764.11H954.591M1302.54 764.11H2374M1238.5 447.722H1336.49L2439 447M1238.5 447.722V512.928M1238.5 447.722L1176.47 435.323M1238.5 512.928H1170.42M1238.5 512.928L1176.47 488.131M1170.42 512.928V578.593M1170.42 512.928L1116.46 488.131M1170.42 578.593H1095.79M1170.42 578.593L1116.46 542.776M1095.79 578.593V641.504M1095.79 578.593L1055.95 542.776M1095.79 641.504H1031.24M1095.79 641.504L1055.95 596.043M1031.24 641.504V706.71M1031.24 641.504L1000.48 596.043M1031.24 706.71H954.591M1031.24 706.71L1000.48 645.637M954.591 706.71V764.11M954.591 706.71L940.976 645.637M954.591 764.11L940.976 692.934V676.403M940.976 645.637H1000.48M940.976 645.637V676.403M1000.48 645.637V596.043M1000.48 596.043H1055.95M1055.95 596.043V542.776M1055.95 542.776H1116.46M1116.46 542.776V488.131M1116.46 488.131H1176.47M1176.47 488.131V435.323M1176.47 435.323H1228.21M123.531 651.147L123.531 432.566H54.445L54.4449 651.147M123.531 651.147L54.4449 703.496V651.147M123.531 651.147H54.4449M153.283 678.699L155.049 381.595M153.283 678.699L940.976 676.403M1228.21 435.323H1227.41L2448 434.5M1228.21 435.323L1228.21 137.301M1228.21 137.301L416.012 139.597M1228.21 137.301H2448M1176.47 111.586L1232.95 50.512H1176.47M1176.47 111.586V50.512M1176.47 111.586H883.487V50.512H1176.47" stroke="black" stroke-width="3"/>
</svg>
