<svg width="2854" height="814" viewBox="0 0 2854 814" fill="none" xmlns="http://www.w3.org/2000/svg">
<path d="M0.998291 812L56.9731 762.419H404.923M2852 367.605V51.2954H2504.05M2852 367.605H2787.96M2852 367.605L2776.86 380H2751.4M2787.96 367.605V302.415M2787.96 367.605L2725.93 380M2787.96 302.415H2719.88M2787.96 302.415L2725.93 327.205M2719.88 302.415V236.766M2719.88 302.415L2665.92 327.205M2719.88 236.766H2645.25M2719.88 236.766L2665.92 272.574M2645.25 236.766V173.871M2645.25 236.766L2605.41 272.574M2645.25 173.871H2580.7M2645.25 173.871L2605.41 219.32M2580.7 173.871V108.681M2580.7 173.871L2549.94 219.32M2580.7 108.681H2504.05M2580.7 108.681L2549.94 169.739M2504.05 108.681V51.2954M2504.05 108.681L2490.43 169.739M2504.05 51.2954L2490.43 122.454V138.062M2490.43 169.739H2549.94M2490.43 169.739V138.062M2549.94 169.739V219.32M2549.94 219.32H2605.41M2605.41 219.32V272.574M2605.41 272.574H2665.92M2665.92 272.574V327.205M2665.92 327.205H2725.93M2725.93 327.205V380M2725.93 380H2751.4M121.016 511.3V446.11L183.042 433.714M121.016 511.3H189.094M121.016 511.3L183.042 486.509M189.094 511.3V576.949M189.094 511.3L243.051 486.509M189.094 576.949H263.726M189.094 576.949L243.051 541.14M263.726 576.949V639.843M263.726 576.949L303.564 541.14M263.726 639.843H328.274M263.726 639.843L303.564 594.394M328.274 639.843V705.033M328.274 639.843L359.034 594.394M328.274 705.033H404.923M328.274 705.033L359.034 643.975M404.923 705.033V762.419M404.923 705.033L418.539 643.975M404.923 762.419L418.539 691.261V674.734M418.539 643.975H359.034M418.539 643.975V674.734M359.034 643.975V594.394M359.034 594.394H303.564M303.564 594.394V541.14M303.564 541.14H243.051M243.051 541.14V486.509M243.051 486.509H183.042M183.042 486.509V433.714M183.042 433.714H131.307M132.11 433.714H131.307M2782.91 649.484L2782.91 430.958H2852L2852 649.484M2782.91 649.484L2852 701.82V649.484M2782.91 649.484H2852M2751.4 380L2753.16 677.029L418.539 674.734M131.307 433.714L131.308 135.767M131.308 135.767L2490.43 138.062M131.308 135.767L5.99805 2M183.043 110.058L126.564 49H183.043M183.043 110.058V49M183.043 110.058H476.028V49H183.043" stroke="black" stroke-width="3"/>
</svg>
