<svg width="281" height="1194" viewBox="0 0 281 1194" fill="none" xmlns="http://www.w3.org/2000/svg">
<path d="M169.716 982.186C169.716 982.186 264.586 948.924 265.916 948.452C267.53 940.76 267.111 921.431 252.527 905.651C237.943 889.871 219.23 888.5 211.697 889.788L169.716 982.186Z" fill="black" stroke="white"/>
<path d="M93.9151 17.0654C93.9151 17.0654 125.116 54.6879 125.556 55.2141C129.335 54.6493 138.075 51.1907 142.803 41.875C147.53 32.5592 144.992 23.7975 143.131 20.5811L93.9151 17.0654Z" fill="black" stroke="white"/>
<path d="M233.084 1118.15C236.986 1116.08 245.738 1124.61 252.466 1137.3C259.194 1149.98 261.351 1162.02 257.448 1164.09" stroke="white"/>
<path d="M184.307 1144.38C185.07 1143.97 186.156 1144.05 187.571 1144.76C188.972 1145.45 190.592 1146.71 192.325 1148.45C195.785 1151.92 199.615 1157.24 202.961 1163.55C206.308 1169.86 208.562 1176.02 209.497 1180.83C209.965 1183.24 210.096 1185.29 209.885 1186.84C209.672 1188.4 209.13 1189.35 208.366 1189.75C207.602 1190.16 206.516 1190.08 205.101 1189.38C203.7 1188.68 202.081 1187.42 200.348 1185.68C196.887 1182.21 193.058 1176.89 189.711 1170.58C186.364 1164.27 184.11 1158.11 183.176 1153.3C182.708 1150.89 182.576 1148.84 182.787 1147.29C183 1145.73 183.543 1144.78 184.307 1144.38Z" fill="black" stroke="white"/>
<path d="M232.782 1177.17L257.448 1164.09M208.418 1131.23L233.083 1118.15" stroke="white"/>
<path d="M208.649 1189.97L233.317 1176.89M184.29 1144.02L208.957 1130.95" stroke="white"/>
<path d="M206.109 685.226C210.123 687.115 209.606 697.016 204.785 707.263C199.964 717.509 192.665 724.22 188.651 722.331" stroke="white"/>
<path d="M155.639 661.875C156.471 662.267 157.11 663.099 157.507 664.38C157.904 665.66 158.041 667.335 157.904 669.303C157.629 673.236 156.266 678.228 153.875 683.309C151.483 688.39 148.505 692.621 145.649 695.339C144.221 696.7 142.842 697.662 141.602 698.172C140.363 698.681 139.314 698.72 138.481 698.328C137.648 697.936 137.01 697.103 136.613 695.823C136.215 694.543 136.078 692.867 136.216 690.899C136.491 686.967 137.854 681.975 140.245 676.894C142.637 671.813 145.615 667.581 148.47 664.863C149.899 663.503 151.278 662.541 152.518 662.031C153.757 661.521 154.806 661.483 155.639 661.875Z" fill="black" stroke="white"/>
<path d="M163.284 710.396L188.652 722.331M180.742 673.291L206.11 685.226" stroke="white"/>
<path d="M138.465 698.718L163.831 710.656M155.928 661.615L181.294 673.554" stroke="white"/>
<path d="M172.419 553.243C172.419 553.243 121.776 537.701 121.065 537.486C117.976 540.245 112.112 548.576 113.367 559.828C114.621 571.081 122.132 577.511 125.73 579.32L172.419 553.243Z" fill="black" stroke="white"/>
<path d="M75.1094 395.725C79.1232 397.614 78.6059 407.515 73.785 417.762C68.9641 428.008 61.6651 434.719 57.6514 432.83" stroke="white"/>
<path d="M24.6387 372.374C25.4714 372.766 26.11 373.598 26.5072 374.879C26.9044 376.159 27.0414 377.834 26.9039 379.802C26.6291 383.735 25.266 388.727 22.8745 393.808C20.4831 398.889 17.5048 403.12 14.6495 405.838C13.2205 407.199 11.842 408.161 10.6022 408.671C9.36252 409.18 8.31375 409.219 7.481 408.827C6.64825 408.435 6.0097 407.602 5.61252 406.322C5.21528 405.042 5.07825 403.366 5.21577 401.398C5.49056 397.466 6.8537 392.474 9.24515 387.393C11.6366 382.312 14.6148 378.08 17.4702 375.363C18.8992 374.002 20.2777 373.04 21.5175 372.53C22.7572 372.021 23.8059 371.982 24.6387 372.374Z" fill="black" stroke="white"/>
<path d="M32.2842 420.895L57.6518 432.83M49.7422 383.79L75.1099 395.725" stroke="white"/>
<path d="M7.46484 409.217L32.8311 421.155M24.9278 372.114L50.2941 384.053" stroke="white"/>
<path d="M152.672 282.641C152.672 282.641 201.514 370.511 202.205 371.741C210.059 372.029 229.038 368.345 242.122 351.3C255.205 334.255 253.388 315.58 250.844 308.373L152.672 282.641Z" fill="black" stroke="white"/>
<path d="M123.166 957.124C133.849 984.781 120.947 1015.49 94.4018 1025.75C67.857 1036 37.6594 1021.93 26.9768 994.276C16.2943 966.619 29.1965 935.906 55.7414 925.653C82.2862 915.401 112.484 929.466 123.166 957.124Z" fill="black" stroke="white"/>
<path d="M117.059 957.824C126.202 981.496 115.158 1007.78 92.4448 1016.55C69.7313 1025.32 43.8875 1013.29 34.7443 989.618C25.6011 965.946 36.6452 939.663 59.3587 930.89C82.0722 922.118 107.916 934.152 117.059 957.824Z" fill="black" stroke="white"/>
<path d="M75.7061 1001.99L84.4559 969.579L63.9978 937.908" stroke="white"/>
<path d="M192.892 182.966C178.443 188.403 162.526 181.542 157.315 167.696C152.105 153.849 159.551 138.197 174.001 132.76C188.45 127.323 204.367 134.184 209.578 148.03C214.788 161.877 207.342 177.529 192.892 182.966Z" fill="black" stroke="white"/>
<path d="M192.552 179.758C180.202 184.405 166.601 178.54 162.15 166.71C157.699 154.881 164.059 141.505 176.41 136.857C188.761 132.21 202.361 138.075 206.813 149.905C211.264 161.734 204.903 175.11 192.552 179.758Z" fill="black" stroke="white"/>
<path d="M169.645 158.076L186.616 162.816L203.332 152.224" stroke="white"/>
<path d="M42.6855 821.306C38.5548 819.74 39.1911 807.533 44.2808 794.105C49.3706 780.678 56.9864 771.116 61.1172 772.682" stroke="white"/>
<path d="M94.5846 840.638C93.7763 840.331 93.1202 839.462 92.7137 837.936C92.311 836.424 92.1861 834.378 92.3496 831.928C92.6762 827.035 94.1449 820.647 96.6778 813.967C99.2108 807.287 102.347 801.531 105.347 797.652C106.848 795.71 108.299 794.261 109.602 793.397C110.918 792.524 111.986 792.308 112.794 792.615C113.602 792.921 114.258 793.791 114.665 795.317C115.068 796.828 115.192 798.874 115.029 801.324C114.702 806.217 113.234 812.605 110.701 819.285C108.168 825.965 105.032 831.721 102.032 835.6C100.53 837.543 99.0801 838.991 97.7765 839.856C96.4604 840.728 95.3929 840.944 94.5846 840.638Z" fill="black" stroke="white"/>
<path d="M87.2246 782.578L61.1173 772.682M68.7929 831.203L42.6857 821.306" stroke="white"/>
<path d="M112.767 792.262L86.6608 782.362M94.3299 840.884L68.224 830.984" stroke="white"/>
<path d="M76.8033 266.893C74.6077 268.226 69.2386 263.567 64.9035 256.431C60.5684 249.294 58.9089 242.381 61.1045 241.048" stroke="white"/>
<path d="M104.124 249.835C103.78 250.044 103.228 250.062 102.406 249.712C101.599 249.369 100.636 248.71 99.5794 247.767C97.4721 245.884 95.0814 242.943 92.9327 239.404C90.784 235.866 89.2769 232.389 88.5778 229.651C88.2275 228.278 88.0875 227.12 88.1551 226.245C88.2238 225.355 88.4946 224.874 88.8384 224.665C89.1823 224.456 89.7345 224.438 90.5559 224.787C91.3635 225.131 92.3266 225.789 93.3828 226.733C95.4901 228.616 97.8808 231.557 100.029 235.095C102.178 238.633 103.685 242.111 104.384 244.849C104.735 246.221 104.875 247.379 104.807 248.254C104.738 249.144 104.468 249.626 104.124 249.835Z" fill="black" stroke="white"/>
<path d="M74.9814 232.618L61.105 241.047M90.6802 258.463L76.8038 266.892" stroke="white"/>
<path d="M88.5586 224.372L74.6809 232.799M104.255 250.218L90.377 258.645" stroke="white"/>
</svg>
