<svg width="55" height="55" viewBox="0 0 55 55" fill="none" xmlns="http://www.w3.org/2000/svg">
<path d="M27.5 32.3125C24.9219 32.3125 22.6875 30.25 22.6875 27.5C22.6875 24.9219 24.75 22.6875 27.5 22.6875C30.0781 22.6875 32.3125 24.75 32.3125 27.5C32.3125 30.0781 30.0781 32.3125 27.5 32.3125Z" fill="white"/>
<path fill-rule="evenodd" clip-rule="evenodd" d="M33.3438 15.8125H21.6562C20.2812 15.9844 19.5938 16.1562 19.0781 16.3281C18.3906 16.5 17.875 16.8437 17.3594 17.3594C16.9514 17.7674 16.7586 18.1754 16.5256 18.6686C16.4642 18.7985 16.3998 18.9348 16.3281 19.0781C16.3015 19.1579 16.2708 19.2418 16.2379 19.3317C16.0581 19.8229 15.8125 20.494 15.8125 21.6562V33.3437C15.9844 34.7187 16.1562 35.4062 16.3281 35.9219C16.5 36.6094 16.8438 37.125 17.3594 37.6406C17.7674 38.0486 18.1754 38.2414 18.6686 38.4744C18.7986 38.5359 18.9346 38.6001 19.0781 38.6719C19.1579 38.6985 19.2418 38.7292 19.3317 38.7621C19.8229 38.9419 20.494 39.1875 21.6562 39.1875H33.3438C34.7187 39.0156 35.4062 38.8437 35.9219 38.6719C36.6094 38.5 37.125 38.1562 37.6406 37.6406C38.0486 37.2326 38.2414 36.8246 38.4744 36.3314C38.5359 36.2014 38.6001 36.0653 38.6719 35.9219C38.6985 35.8421 38.7292 35.7582 38.7621 35.6683C38.9419 35.1771 39.1875 34.506 39.1875 33.3437V21.6562C39.0156 20.2812 38.8438 19.5937 38.6719 19.0781C38.5 18.3906 38.1562 17.875 37.6406 17.3594C37.2326 16.9514 36.8246 16.7586 36.3314 16.5256C36.2016 16.4642 36.0651 16.3997 35.9219 16.3281C35.8421 16.3015 35.7582 16.2708 35.6683 16.2379C35.1771 16.0581 34.506 15.8125 33.3438 15.8125ZM27.5 20.1094C23.375 20.1094 20.1094 23.375 20.1094 27.5C20.1094 31.625 23.375 34.8906 27.5 34.8906C31.625 34.8906 34.8906 31.625 34.8906 27.5C34.8906 23.375 31.625 20.1094 27.5 20.1094ZM36.7812 19.9375C36.7812 20.8867 36.0117 21.6562 35.0625 21.6562C34.1133 21.6562 33.3438 20.8867 33.3438 19.9375C33.3438 18.9883 34.1133 18.2187 35.0625 18.2187C36.0117 18.2187 36.7812 18.9883 36.7812 19.9375Z" fill="white"/>
<path fill-rule="evenodd" clip-rule="evenodd" d="M0 0H55V55H0V0ZM21.6562 13.2344H33.3438C34.8906 13.4062 35.9219 13.5781 36.7812 13.9219C37.8125 14.4375 38.5 14.7812 39.3594 15.6406C40.2188 16.5 40.7344 17.3594 41.0781 18.2187C41.4219 19.0781 41.7656 20.1094 41.7656 21.6562V33.3437C41.5937 34.8906 41.4219 35.9219 41.0781 36.7812C40.5625 37.8125 40.2188 38.5 39.3594 39.3594C38.5 40.2187 37.6406 40.7344 36.7812 41.0781C35.9219 41.4219 34.8906 41.7656 33.3438 41.7656H21.6562C20.1094 41.5937 19.0781 41.4219 18.2188 41.0781C17.1875 40.5625 16.5 40.2187 15.6406 39.3594C14.7813 38.5 14.2656 37.6406 13.9219 36.7812C13.5781 35.9219 13.2344 34.8906 13.2344 33.3437V21.6562C13.4062 20.1094 13.5781 19.0781 13.9219 18.2187C14.4375 17.1875 14.7813 16.5 15.6406 15.6406C16.5 14.7812 17.3594 14.2656 18.2188 13.9219C19.0781 13.5781 20.1094 13.2344 21.6562 13.2344Z" fill="white"/>
</svg>
