<svg width="57" height="55" viewBox="0 0 57 55" fill="none" xmlns="http://www.w3.org/2000/svg">
<path fill-rule="evenodd" clip-rule="evenodd" d="M0 0H57V55H0V0ZM39.3656 19.7656C40.6125 19.5938 41.6812 19.4219 42.75 18.9062C42.0375 20.1094 40.9688 21.1406 39.7219 21.8281C40.0781 29.9062 34.0219 38.6719 23.1562 38.6719C19.95 38.6719 16.9219 37.6406 14.25 36.0938C17.2781 36.4375 20.4844 35.5781 22.6219 34.0312C19.95 34.0312 17.8125 32.3125 17.1 30.0781C17.9906 30.25 18.8813 30.0781 19.7719 29.9062C17.1 29.2188 15.1406 26.8125 15.1406 24.2344C16.0312 24.5781 16.9219 24.9219 17.8125 24.9219C15.3188 23.2031 14.4281 19.9375 16.0312 17.3594C19.0594 20.7969 23.3344 23.0312 28.1438 23.2031C27.2531 19.7656 30.1031 16.3281 33.8438 16.3281C35.4469 16.3281 37.05 17.0156 38.1187 18.0469C39.5437 17.7031 40.7906 17.3594 41.8594 16.6719C41.5031 18.0469 40.6125 19.0781 39.3656 19.7656Z" fill="white"/>
</svg>
