<svg width="1512" height="1362" viewBox="0 0 1512 1362" fill="none" xmlns="http://www.w3.org/2000/svg">
<path d="M421.5 -284.199L379.253 -273.907V-215.946L337.547 -204.029V-146.609L294.758 -135.234V-77.2729L252.51 -65.8974V-7.39478L210.263 4.52243V61.9417L166.932 74.4006V132.362L125.227 143.737V201.156L82.4375 213.073V271.034L40.1901 282.952V340.371L-2.59894 352.83V409.707L-44.8464 421.624V444.917M421.5 -284.199V-400.662M421.5 -284.199L463.747 -273.907V-215.946L505.453 -204.029V-146.609L548.242 -135.234V-77.2729L590.49 -65.8974V-7.39478L632.737 4.52243V61.9417L676.068 74.4006V132.362L717.774 143.737V201.156L760.563 213.073V271.034L802.81 282.952V340.371L845.599 352.83V409.707L887.846 421.624V444.917M208.096 -436.956V-378.995M208.096 -436.956L379.253 -388.204M208.096 -436.956L250.344 -448.645M208.096 -378.995L166.391 -367.078M208.096 -378.995L379.253 -330.243M166.391 -367.078V-309.658M166.391 -367.078L337.547 -318.325M166.391 -309.658L123.602 -298.283M166.391 -309.658L337.547 -260.906M123.602 -298.283V-240.322M123.602 -298.283L294.758 -249.531M123.602 -240.322L81.3542 -228.946M123.602 -240.322L294.758 -191.57M81.3542 -228.946V-170.444M81.3542 -228.946L252.51 -180.194M81.3542 -170.444L39.1068 -158.527M81.3542 -170.444L252.51 -121.692M39.1068 -158.527V-101.107M39.1068 -158.527L210.263 -109.774M39.1068 -101.107L-4.22388 -88.6484M39.1068 -101.107L210.263 -52.3551M-4.22388 -88.6484V-30.6875M-4.22388 -88.6484L166.932 -39.8962M-4.22388 -30.6875L-45.9296 -19.312M-4.22388 -30.6875L166.932 18.0647M-45.9296 -19.312V38.1073M-45.9296 -19.312L125.227 29.4402M-45.9296 38.1073L-88.7187 50.0245M-45.9296 38.1073L125.227 86.8594M-88.7187 50.0245V107.985M-88.7187 50.0245L82.4375 98.7767M-88.7187 107.985L-130.966 119.903M-88.7187 107.985L82.4375 156.738M-130.966 119.903V177.322M-130.966 119.903L40.1901 168.655M-130.966 177.322L-173.755 189.781M-130.966 177.322L40.1901 226.074M-173.755 189.781V246.658M-173.755 189.781L-2.59894 238.533M-173.755 246.658L-216.003 258.576M-173.755 246.658L-2.59894 295.41M-216.003 258.576V317.078M-216.003 258.576L-44.8464 307.328M-216.003 317.078L-258.25 328.454M-216.003 317.078L-44.8464 365.83M-258.25 328.454V385.873M-258.25 328.454L-87.0938 377.206M-258.25 328.454L-300.497 317.078M-258.25 328.454L-429.406 377.206M-258.25 385.873L-429.406 433.228M-258.25 385.873L-87.0938 433.228M379.253 -388.204V-330.243M379.253 -388.204L421.5 -400.662M379.253 -330.243L337.547 -318.325M337.547 -318.325V-260.906M337.547 -260.906L294.758 -249.531M294.758 -249.531V-191.57M294.758 -191.57L252.51 -180.194M252.51 -180.194V-121.692M252.51 -121.692L210.263 -109.774M210.263 -109.774V-52.3551M210.263 -52.3551L166.932 -39.8962M166.932 -39.8962V18.0647M166.932 18.0647L125.227 29.4402M125.227 29.4402V86.8594M125.227 86.8594L82.4375 98.7767M82.4375 98.7767V156.738M82.4375 156.738L40.1901 168.655M40.1901 168.655V226.074M40.1901 226.074L-2.59894 238.533M-2.59894 238.533V295.41M-2.59894 295.41L-44.8464 307.328M-44.8464 307.328V365.83M-44.8464 365.83L-87.0938 377.206M-87.0938 377.206V433.228M-87.0938 433.228L-44.8464 444.917M-87.0938 433.228L-258.25 481.21M-44.8464 444.917V502.878M-44.8464 444.917L-216.003 493.669M250.344 -448.645L421.5 -496L592.656 -448.645M250.344 -448.645L421.5 -400.662M421.5 -400.662L592.656 -448.645M421.5 -400.662L463.747 -388.204M634.904 -436.956V-378.995M634.904 -436.956L463.747 -388.204M634.904 -436.956L592.656 -448.645M634.904 -378.995L676.609 -367.078M634.904 -378.995L463.747 -330.243M676.609 -367.078V-309.658M676.609 -367.078L505.453 -318.325M676.609 -309.658L719.398 -298.283M676.609 -309.658L505.453 -260.906M719.398 -298.283V-240.322M719.398 -298.283L548.242 -249.531M719.398 -240.322L761.646 -228.946M719.398 -240.322L548.242 -191.57M761.646 -228.946V-170.444M761.646 -228.946L590.49 -180.194M761.646 -170.444L803.893 -158.527M761.646 -170.444L590.49 -121.692M803.893 -158.527V-101.107M803.893 -158.527L632.737 -109.774M803.893 -101.107L847.224 -88.6484M803.893 -101.107L632.737 -52.3551M847.224 -88.6484V-30.6875M847.224 -88.6484L676.068 -39.8962M847.224 -30.6875L888.93 -19.312M847.224 -30.6875L676.068 18.0647M888.93 -19.312V38.1073M888.93 -19.312L717.774 29.4402M888.93 38.1073L931.719 50.0245M888.93 38.1073L717.774 86.8594M931.719 50.0245V107.985M931.719 50.0245L760.563 98.7767M931.719 107.985L973.966 119.903M931.719 107.985L760.563 156.738M973.966 119.903V177.322M973.966 119.903L802.81 168.655M973.966 177.322L1016.76 189.781M973.966 177.322L802.81 226.074M1016.76 189.781V246.658M1016.76 189.781L845.599 238.533M1016.76 246.658L1059 258.576M1016.76 246.658L845.599 295.41M1059 258.576V317.078M1059 258.576L887.846 307.328M1059 317.078L1101.25 328.454M1059 317.078L887.846 365.83M1101.25 328.454V385.873M1101.25 328.454L930.094 377.206M1101.25 328.454L1143.5 317.078M1101.25 328.454L1272.41 377.206M1101.25 385.873L930.094 433.228M1101.25 385.873L1272.41 433.228M463.747 -388.204V-330.243M463.747 -330.243L505.453 -318.325M505.453 -318.325V-260.906M505.453 -260.906L548.242 -249.531M548.242 -249.531V-191.57M548.242 -191.57L590.49 -180.194M590.49 -180.194V-121.692M590.49 -121.692L632.737 -109.774M632.737 -109.774V-52.3551M632.737 -52.3551L676.068 -39.8962M676.068 -39.8962V18.0647M676.068 18.0647L717.774 29.4402M717.774 29.4402V86.8594M717.774 86.8594L760.563 98.7767M760.563 98.7767V156.738M760.563 156.738L802.81 168.655M802.81 168.655V226.074M802.81 226.074L845.599 238.533M845.599 238.533V295.41M845.599 295.41L887.846 307.328M887.846 307.328V365.83M887.846 365.83L930.094 377.206M930.094 377.206V433.228M930.094 433.228L887.846 444.917M930.094 433.228L1101.25 481.21M887.846 444.917V502.878M887.846 444.917L1059 493.669M-471.654 444.917V502.878M-471.654 444.917L-300.497 493.669M-471.654 444.917L-429.406 433.228M-471.654 444.917V421.624L-513.901 409.707V352.83L-556.69 340.371V282.952L-598.937 271.034V213.073L-641.726 201.156V143.737L-683.432 132.362V74.4006L-726.763 61.9417V4.52243L-769.01 -7.39478V-65.8974L-811.258 -77.2729V-135.234L-854.047 -146.609V-204.029L-895.753 -215.946V-273.907L-938 -284.199V-400.662M-471.654 502.878L-513.359 514.795M-471.654 502.878L-300.497 551.63M-513.359 514.795V572.214M-513.359 514.795L-342.203 563.547M-513.359 572.214L-556.148 583.59M-513.359 572.214L-342.203 620.967M-556.148 583.59V641.551M-556.148 583.59L-384.992 632.342M-556.148 641.551L-598.396 652.927M-556.148 641.551L-384.992 690.303M-598.396 652.927V711.429M-598.396 652.927L-427.24 701.679M-598.396 711.429L-640.643 723.346M-598.396 711.429L-427.24 760.181M-640.643 723.346V780.766M-640.643 723.346L-469.487 772.099M-640.643 780.766L-683.974 793.224M-640.643 780.766L-469.487 829.518M-683.974 793.224V851.185M-683.974 793.224L-512.818 841.977M-683.974 851.185L-725.68 862.561M-683.974 851.185L-512.818 899.938M-725.68 862.561V919.98M-725.68 862.561L-554.523 911.313M-725.68 919.98L-768.469 931.897M-725.68 919.98L-554.523 968.732M-768.469 931.897V989.858M-768.469 931.897L-597.313 980.65M-768.469 989.858L-810.716 1001.78M-768.469 989.858L-597.313 1038.61M-810.716 1001.78V1059.19M-810.716 1001.78L-639.56 1050.53M-810.716 1059.19L-853.505 1071.65M-810.716 1059.19L-639.56 1107.95M-853.505 1071.65V1128.53M-853.505 1071.65L-682.349 1120.41M-853.505 1128.53L-895.753 1140.45M-853.505 1128.53L-682.349 1177.28M-895.753 1140.45V1198.95M-895.753 1140.45L-724.596 1189.2M-895.753 1198.95L-938 1210.33M-895.753 1198.95L-724.596 1247.7M-938 1210.33V1267.75M-938 1210.33L-766.844 1259.08M-300.497 493.669V551.63M-300.497 493.669L-258.25 481.21M-300.497 551.63L-342.203 563.547M-342.203 563.547V620.967M-342.203 620.967L-384.992 632.342M-384.992 632.342V690.303M-384.992 690.303L-427.24 701.679M-427.24 701.679V760.181M-427.24 760.181L-469.487 772.099M-469.487 772.099V829.518M-469.487 829.518L-512.818 841.977M-512.818 841.977V899.938M-512.818 899.938L-554.523 911.313M-554.523 911.313V968.732M-554.523 968.732L-597.313 980.65M-597.313 980.65V1038.61M-597.313 1038.61L-639.56 1050.53M-639.56 1050.53V1107.95M-639.56 1107.95L-682.349 1120.41M-682.349 1120.41V1177.28M-682.349 1177.28L-724.596 1189.2M-724.596 1189.2V1247.7M-724.596 1247.7L-766.844 1259.08M-766.844 1259.08V1316.5M-724.596 1362V1303.5L-682.349 1291.58V1234.7L-639.56 1222.24V1164.82L-597.313 1152.91V1094.95L-554.523 1083.03V1025.61L-512.818 1014.23V956.273L-469.487 943.815V886.395L-427.24 874.478V815.975L-384.992 804.6V746.639L-342.203 735.264V677.844L-300.497 665.927V607.966L-258.25 597.674M-258.25 597.674V481.21M-258.25 597.674L-216.003 607.966V665.927L-174.297 677.844V735.264L-131.508 746.639V804.6L-89.2603 815.975V874.478L-47.0129 886.395V943.815L-3.68225 956.273V1014.23L38.0236 1025.61V1083.03L80.8126 1094.95V1152.91L123.06 1164.82V1222.24L165.849 1234.7V1291.58L208.096 1303.5V1362M-429.406 433.228L-258.25 481.21M-429.406 433.228V377.206M-258.25 481.21L-216.003 493.669M-44.8464 502.878L-3.14062 514.795M-44.8464 502.878L-216.003 551.63M-3.14062 514.795V572.214M-3.14062 514.795L-174.297 563.547M-3.14062 572.214L39.6484 583.59M-3.14062 572.214L-174.297 620.967M39.6484 583.59V641.551M39.6484 583.59L-131.508 632.342M39.6484 641.551L81.8959 652.927M39.6484 641.551L-131.508 690.303M81.8959 652.927V711.429M81.8959 652.927L-89.2603 701.679M81.8959 711.429L124.143 723.346M81.8959 711.429L-89.2603 760.181M124.143 723.346V780.766M124.143 723.346L-47.0129 772.099M124.143 780.766L167.474 793.224M124.143 780.766L-47.0129 829.518M167.474 793.224V851.185M167.474 793.224L-3.68225 841.977M167.474 851.185L209.18 862.561M167.474 851.185L-3.68225 899.938M209.18 862.561V919.98M209.18 862.561L38.0236 911.313M209.18 919.98L251.969 931.897M209.18 919.98L38.0236 968.732M251.969 931.897V989.858M251.969 931.897L80.8126 980.65M251.969 989.858L294.216 1001.78M251.969 989.858L80.8126 1038.61M294.216 1001.78V1059.19M294.216 1001.78L123.06 1050.53M294.216 1059.19L337.005 1071.65M294.216 1059.19L123.06 1107.95M337.005 1071.65V1128.53M337.005 1071.65L165.849 1120.41M337.005 1128.53L379.253 1140.45M337.005 1128.53L165.849 1177.28M379.253 1140.45V1198.95M379.253 1140.45L208.096 1189.2M379.253 1198.95L421.5 1210.33M379.253 1198.95L208.096 1247.7M421.5 1210.33V1267.75M421.5 1210.33L250.344 1259.08M421.5 1210.33L463.747 1198.95M421.5 1210.33L592.656 1259.08M-216.003 493.669V551.63M-216.003 551.63L-174.297 563.547M-174.297 563.547V620.967M-174.297 620.967L-131.508 632.342M-131.508 632.342V690.303M-131.508 690.303L-89.2603 701.679M-89.2603 701.679V760.181M-89.2603 760.181L-47.0129 772.099M-47.0129 772.099V829.518M-47.0129 829.518L-3.68225 841.977M-3.68225 841.977V899.938M-3.68225 899.938L38.0236 911.313M38.0236 911.313V968.732M38.0236 968.732L80.8126 980.65M80.8126 980.65V1038.61M80.8126 1038.61L123.06 1050.53M123.06 1050.53V1107.95M123.06 1107.95L165.849 1120.41M165.849 1120.41V1177.28M165.849 1177.28L208.096 1189.2M208.096 1189.2V1247.7M208.096 1247.7L250.344 1259.08M250.344 1259.08V1314.87M887.846 502.878L846.141 514.795M887.846 502.878L1059 551.63M846.141 514.795V572.214M846.141 514.795L1017.3 563.547M846.141 572.214L803.352 583.59M846.141 572.214L1017.3 620.967M803.352 583.59V641.551M803.352 583.59L974.508 632.342M803.352 641.551L761.104 652.927M803.352 641.551L974.508 690.303M761.104 652.927V711.429M761.104 652.927L932.26 701.679M761.104 711.429L718.857 723.346M761.104 711.429L932.26 760.181M718.857 723.346V780.766M718.857 723.346L890.013 772.099M718.857 780.766L675.526 793.224M718.857 780.766L890.013 829.518M675.526 793.224V851.185M675.526 793.224L846.682 841.977M675.526 851.185L633.82 862.561M675.526 851.185L846.682 899.938M633.82 862.561V919.98M633.82 862.561L804.977 911.313M633.82 919.98L591.031 931.897M633.82 919.98L804.977 968.732M591.031 931.897V989.858M591.031 931.897L762.188 980.65M591.031 989.858L548.784 1001.78M591.031 989.858L762.188 1038.61M548.784 1001.78V1059.19M548.784 1001.78L719.94 1050.53M548.784 1059.19L505.995 1071.65M548.784 1059.19L719.94 1107.95M505.995 1071.65V1128.53M505.995 1071.65L677.151 1120.41M505.995 1128.53L463.747 1140.45M505.995 1128.53L677.151 1177.28M463.747 1140.45V1198.95M463.747 1140.45L634.904 1189.2M463.747 1198.95L634.904 1247.7M1059 493.669V551.63M1059 493.669L1101.25 481.21M1059 551.63L1017.3 563.547M1017.3 563.547V620.967M1017.3 620.967L974.508 632.342M974.508 632.342V690.303M974.508 690.303L932.26 701.679M932.26 701.679V760.181M932.26 760.181L890.013 772.099M890.013 772.099V829.518M890.013 829.518L846.682 841.977M846.682 841.977V899.938M846.682 899.938L804.977 911.313M804.977 911.313V968.732M804.977 968.732L762.188 980.65M762.188 980.65V1038.61M762.188 1038.61L719.94 1050.53M719.94 1050.53V1107.95M719.94 1107.95L677.151 1120.41M677.151 1120.41V1177.28M677.151 1177.28L634.904 1189.2M634.904 1189.2V1247.7M634.904 1247.7L592.656 1259.08M592.656 1259.08V1314.87M634.904 1326.79V1303.5L677.151 1291.58V1234.7L719.94 1222.24V1164.82L762.188 1152.91V1094.95L804.977 1083.03V1025.61L846.682 1014.23V956.273L890.013 943.815V886.395L932.26 874.478V815.975L974.508 804.6V746.639L1017.3 735.264V677.844L1059 665.927V607.966L1101.25 597.674M1101.25 597.674V481.21M1101.25 597.674L1143.5 607.966V665.927L1185.2 677.844V735.264L1227.99 746.639V804.6L1270.24 815.975V874.478L1312.49 886.395V943.815L1355.82 956.273V1014.23L1397.52 1025.61V1083.03L1440.31 1094.95V1152.91L1482.56 1164.82V1222.24L1525.35 1234.7V1291.58L1567.6 1303.5V1362M1101.25 481.21L1272.41 433.228M1101.25 481.21L1143.5 493.669M1314.65 444.917V502.878M1314.65 444.917L1143.5 493.669M1314.65 444.917L1272.41 433.228M1314.65 444.917V421.624L1356.9 409.707V352.83L1399.69 340.371V282.952L1441.94 271.034V213.073L1484.73 201.156V143.737L1526.43 132.362V74.4006L1569.76 61.9417V4.52243L1612.01 -7.39478V-65.8974L1654.26 -77.2729V-135.234L1697.05 -146.609V-204.029L1738.75 -215.946V-273.907L1781 -284.199V-400.662M1314.65 502.878L1356.36 514.795M1314.65 502.878L1143.5 551.63M1356.36 514.795V572.214M1356.36 514.795L1185.2 563.547M1356.36 572.214L1399.15 583.59M1356.36 572.214L1185.2 620.967M1399.15 583.59V641.551M1399.15 583.59L1227.99 632.342M1399.15 641.551L1441.4 652.927M1399.15 641.551L1227.99 690.303M1441.4 652.927V711.429M1441.4 652.927L1270.24 701.679M1441.4 711.429L1483.64 723.346M1441.4 711.429L1270.24 760.181M1483.64 723.346V780.766M1483.64 723.346L1312.49 772.099M1483.64 780.766L1526.97 793.224M1483.64 780.766L1312.49 829.518M1526.97 793.224V851.185M1526.97 793.224L1355.82 841.977M1526.97 851.185L1568.68 862.561M1526.97 851.185L1355.82 899.938M1568.68 862.561V919.98M1568.68 862.561L1397.52 911.313M1568.68 919.98L1611.47 931.897M1568.68 919.98L1397.52 968.732M1611.47 931.897V989.858M1611.47 931.897L1440.31 980.65M1611.47 989.858L1653.72 1001.78M1611.47 989.858L1440.31 1038.61M1653.72 1001.78V1059.19M1653.72 1001.78L1482.56 1050.53M1653.72 1059.19L1696.51 1071.65M1653.72 1059.19L1482.56 1107.95M1696.51 1071.65V1128.53M1696.51 1071.65L1525.35 1120.41M1696.51 1128.53L1738.75 1140.45M1696.51 1128.53L1525.35 1177.28M1738.75 1140.45V1198.95M1738.75 1140.45L1567.6 1189.2M1738.75 1198.95L1781 1210.33M1738.75 1198.95L1567.6 1247.7M1781 1210.33V1267.75M1781 1210.33L1609.84 1259.08M1143.5 493.669V551.63M1143.5 551.63L1185.2 563.547M1185.2 563.547V620.967M1185.2 620.967L1227.99 632.342M1227.99 632.342V690.303M1227.99 690.303L1270.24 701.679M1270.24 701.679V760.181M1270.24 760.181L1312.49 772.099M1312.49 772.099V829.518M1312.49 829.518L1355.82 841.977M1355.82 841.977V899.938M1355.82 899.938L1397.52 911.313M1397.52 911.313V968.732M1397.52 968.732L1440.31 980.65M1440.31 980.65V1038.61M1440.31 1038.61L1482.56 1050.53M1482.56 1050.53V1107.95M1482.56 1107.95L1525.35 1120.41M1525.35 1120.41V1177.28M1525.35 1177.28L1567.6 1189.2M1567.6 1189.2V1247.7M1567.6 1247.7L1609.84 1259.08M1609.84 1259.08V1316.5M1272.41 433.228V377.206M-724.596 -436.956V-378.995M-724.596 -436.956L-895.753 -388.203M-724.596 -436.956L-766.844 -448.645L-938 -400.662M-724.596 -378.995L-682.891 -367.078M-724.596 -378.995L-895.753 -330.243M-682.891 -367.078V-309.658M-682.891 -367.078L-854.047 -318.325M-682.891 -309.658L-640.102 -298.283M-682.891 -309.658L-854.047 -260.906M-640.102 -298.283V-240.322M-640.102 -298.283L-811.258 -249.531M-640.102 -240.322L-597.854 -228.946M-640.102 -240.322L-811.258 -191.57M-597.854 -228.946V-170.444M-597.854 -228.946L-769.01 -180.194M-597.854 -170.444L-555.607 -158.527M-597.854 -170.444L-769.01 -121.692M-555.607 -158.527V-101.107M-555.607 -158.527L-726.763 -109.774M-555.607 -101.107L-512.276 -88.6484M-555.607 -101.107L-726.763 -52.3551M-512.276 -88.6484V-30.6875M-512.276 -88.6484L-683.432 -39.8962M-512.276 -30.6875L-470.57 -19.312M-512.276 -30.6875L-683.432 18.0647M-470.57 -19.312V38.1073M-470.57 -19.312L-641.726 29.4402M-470.57 38.1073L-427.781 50.0245M-470.57 38.1073L-641.726 86.8594M-427.781 50.0245V107.985M-427.781 50.0245L-598.937 98.7767M-427.781 107.985L-385.534 119.903M-427.781 107.985L-598.937 156.738M-385.534 119.903V177.322M-385.534 119.903L-556.69 168.655M-385.534 177.322L-342.745 189.781M-385.534 177.322L-556.69 226.074M-342.745 189.781V246.658M-342.745 189.781L-513.901 238.533M-342.745 246.658L-300.497 258.576M-342.745 246.658L-513.901 295.41M-300.497 258.576V317.078M-300.497 258.576L-471.654 307.328M-300.497 317.078L-471.654 365.83M-895.753 -388.203V-330.243M-895.753 -388.203L-938 -400.662M-895.753 -330.243L-854.047 -318.325M-854.047 -318.325V-260.906M-854.047 -260.906L-811.258 -249.531M-811.258 -249.531V-191.57M-811.258 -191.57L-769.01 -180.194M-769.01 -180.194V-121.692M-769.01 -121.692L-726.763 -109.774M-726.763 -109.774V-52.3551M-726.763 -52.3551L-683.432 -39.8962M-683.432 -39.8962V18.0647M-683.432 18.0647L-641.726 29.4402M-641.726 29.4402V86.8594M-641.726 86.8594L-598.937 98.7767M-598.937 98.7767V156.738M-598.937 156.738L-556.69 168.655M-556.69 168.655V226.074M-556.69 226.074L-513.901 238.533M-513.901 238.533V295.41M-513.901 295.41L-471.654 307.328M-471.654 307.328V365.83M-471.654 365.83L-429.406 377.206M1567.6 -436.956V-378.995M1567.6 -436.956L1738.75 -388.203M1567.6 -436.956L1609.84 -448.645L1781 -400.662M1567.6 -378.995L1525.89 -367.078M1567.6 -378.995L1738.75 -330.243M1525.89 -367.078V-309.658M1525.89 -367.078L1697.05 -318.325M1525.89 -309.658L1483.1 -298.283M1525.89 -309.658L1697.05 -260.906M1483.1 -298.283V-240.322M1483.1 -298.283L1654.26 -249.531M1483.1 -240.322L1440.85 -228.946M1483.1 -240.322L1654.26 -191.57M1440.85 -228.946V-170.444M1440.85 -228.946L1612.01 -180.194M1440.85 -170.444L1398.61 -158.527M1440.85 -170.444L1612.01 -121.692M1398.61 -158.527V-101.107M1398.61 -158.527L1569.76 -109.774M1398.61 -101.107L1355.28 -88.6484M1398.61 -101.107L1569.76 -52.3551M1355.28 -88.6484V-30.6875M1355.28 -88.6484L1526.43 -39.8962M1355.28 -30.6875L1313.57 -19.312M1355.28 -30.6875L1526.43 18.0647M1313.57 -19.312V38.1073M1313.57 -19.312L1484.73 29.4402M1313.57 38.1073L1270.78 50.0245M1313.57 38.1073L1484.73 86.8594M1270.78 50.0245V107.985M1270.78 50.0245L1441.94 98.7767M1270.78 107.985L1228.53 119.903M1270.78 107.985L1441.94 156.738M1228.53 119.903V177.322M1228.53 119.903L1399.69 168.655M1228.53 177.322L1185.74 189.781M1228.53 177.322L1399.69 226.074M1185.74 189.781V246.658M1185.74 189.781L1356.9 238.533M1185.74 246.658L1143.5 258.576M1185.74 246.658L1356.9 295.41M1143.5 258.576V317.078M1143.5 258.576L1314.65 307.328M1143.5 317.078L1314.65 365.83M1738.75 -388.203V-330.243M1738.75 -388.203L1781 -400.662M1738.75 -330.243L1697.05 -318.325M1697.05 -318.325V-260.906M1697.05 -260.906L1654.26 -249.531M1654.26 -249.531V-191.57M1654.26 -191.57L1612.01 -180.194M1612.01 -180.194V-121.692M1612.01 -121.692L1569.76 -109.774M1569.76 -109.774V-52.3551M1569.76 -52.3551L1526.43 -39.8962M1526.43 -39.8962V18.0647M1526.43 18.0647L1484.73 29.4402M1484.73 29.4402V86.8594M1484.73 86.8594L1441.94 98.7767M1441.94 98.7767V156.738M1441.94 156.738L1399.69 168.655M1399.69 168.655V226.074M1399.69 226.074L1356.9 238.533M1356.9 238.533V295.41M1356.9 295.41L1314.65 307.328M1314.65 307.328V365.83M1314.65 365.83L1272.41 377.206" stroke="black"/>
</svg>
