<svg width="1512" height="1859" viewBox="0 0 1512 1859" fill="none" xmlns="http://www.w3.org/2000/svg">
<path d="M421.5 212.801L379.253 223.093V281.054L337.547 292.971V350.391L294.758 361.766V419.727L252.51 431.103V489.605L210.263 501.522V558.942L166.932 571.401V629.362L125.227 640.737V698.156L82.4375 710.073V768.034L40.1901 779.952V837.371L-2.59894 849.83V906.707L-44.8464 918.624V941.917M421.5 212.801V96.3376M421.5 212.801L463.747 223.093V281.054L505.453 292.971V350.391L548.242 361.766V419.727L590.49 431.103V489.605L632.737 501.522V558.942L676.068 571.401V629.362L717.774 640.737V698.156L760.563 710.073V768.034L802.81 779.952V837.371L845.599 849.83V906.707L887.846 918.624V941.917M208.096 60.0443V118.005M208.096 60.0443L379.253 108.796M208.096 60.0443L250.344 48.3553M208.096 118.005L166.391 129.922M208.096 118.005L379.253 166.757M166.391 129.922V187.342M166.391 129.922L337.547 178.675M166.391 187.342L123.602 198.717M166.391 187.342L337.547 236.094M123.602 198.717V256.678M123.602 198.717L294.758 247.469M123.602 256.678L81.3542 268.054M123.602 256.678L294.758 305.43M81.3542 268.054V326.556M81.3542 268.054L252.51 316.806M81.3542 326.556L39.1068 338.473M81.3542 326.556L252.51 375.308M39.1068 338.473V395.893M39.1068 338.473L210.263 387.226M39.1068 395.893L-4.22388 408.352M39.1068 395.893L210.263 444.645M-4.22388 408.352V466.313M-4.22388 408.352L166.932 457.104M-4.22388 466.313L-45.9296 477.688M-4.22388 466.313L166.932 515.065M-45.9296 477.688V535.107M-45.9296 477.688L125.227 526.44M-45.9296 535.107L-88.7187 547.024M-45.9296 535.107L125.227 583.859M-88.7187 547.024V604.985M-88.7187 547.024L82.4375 595.777M-88.7187 604.985L-130.966 616.903M-88.7187 604.985L82.4375 653.738M-130.966 616.903V674.322M-130.966 616.903L40.1901 665.655M-130.966 674.322L-173.755 686.781M-130.966 674.322L40.1901 723.074M-173.755 686.781V743.658M-173.755 686.781L-2.59894 735.533M-173.755 743.658L-216.003 755.576M-173.755 743.658L-2.59894 792.41M-216.003 755.576V814.078M-216.003 755.576L-44.8464 804.328M-216.003 814.078L-258.25 825.454M-216.003 814.078L-44.8464 862.83M-258.25 825.454V882.873M-258.25 825.454L-87.0938 874.206M-258.25 825.454L-300.497 814.078M-258.25 825.454L-429.406 874.206M-258.25 882.873L-429.406 930.228M-258.25 882.873L-87.0938 930.228M379.253 108.796V166.757M379.253 108.796L421.5 96.3376M379.253 166.757L337.547 178.675M337.547 178.675V236.094M337.547 236.094L294.758 247.469M294.758 247.469V305.43M294.758 305.43L252.51 316.806M252.51 316.806V375.308M252.51 375.308L210.263 387.226M210.263 387.226V444.645M210.263 444.645L166.932 457.104M166.932 457.104V515.065M166.932 515.065L125.227 526.44M125.227 526.44V583.859M125.227 583.859L82.4375 595.777M82.4375 595.777V653.738M82.4375 653.738L40.1901 665.655M40.1901 665.655V723.074M40.1901 723.074L-2.59894 735.533M-2.59894 735.533V792.41M-2.59894 792.41L-44.8464 804.328M-44.8464 804.328V862.83M-44.8464 862.83L-87.0938 874.206M-87.0938 874.206V930.228M-87.0938 930.228L-44.8464 941.917M-87.0938 930.228L-258.25 978.21M-44.8464 941.917V999.878M-44.8464 941.917L-216.003 990.669M250.344 48.3553L421.5 1L592.656 48.3553M250.344 48.3553L421.5 96.3376M421.5 96.3376L592.656 48.3553M421.5 96.3376L463.747 108.796M634.904 60.0443V118.005M634.904 60.0443L463.747 108.796M634.904 60.0443L592.656 48.3553M634.904 118.005L676.609 129.922M634.904 118.005L463.747 166.757M676.609 129.922V187.342M676.609 129.922L505.453 178.675M676.609 187.342L719.398 198.717M676.609 187.342L505.453 236.094M719.398 198.717V256.678M719.398 198.717L548.242 247.469M719.398 256.678L761.646 268.054M719.398 256.678L548.242 305.43M761.646 268.054V326.556M761.646 268.054L590.49 316.806M761.646 326.556L803.893 338.473M761.646 326.556L590.49 375.308M803.893 338.473V395.893M803.893 338.473L632.737 387.226M803.893 395.893L847.224 408.352M803.893 395.893L632.737 444.645M847.224 408.352V466.313M847.224 408.352L676.068 457.104M847.224 466.313L888.93 477.688M847.224 466.313L676.068 515.065M888.93 477.688V535.107M888.93 477.688L717.774 526.44M888.93 535.107L931.719 547.024M888.93 535.107L717.774 583.859M931.719 547.024V604.985M931.719 547.024L760.563 595.777M931.719 604.985L973.966 616.903M931.719 604.985L760.563 653.738M973.966 616.903V674.322M973.966 616.903L802.81 665.655M973.966 674.322L1016.76 686.781M973.966 674.322L802.81 723.074M1016.76 686.781V743.658M1016.76 686.781L845.599 735.533M1016.76 743.658L1059 755.576M1016.76 743.658L845.599 792.41M1059 755.576V814.078M1059 755.576L887.846 804.328M1059 814.078L1101.25 825.454M1059 814.078L887.846 862.83M1101.25 825.454V882.873M1101.25 825.454L930.094 874.206M1101.25 825.454L1143.5 814.078M1101.25 825.454L1272.41 874.206M1101.25 882.873L930.094 930.228M1101.25 882.873L1272.41 930.228M463.747 108.796V166.757M463.747 166.757L505.453 178.675M505.453 178.675V236.094M505.453 236.094L548.242 247.469M548.242 247.469V305.43M548.242 305.43L590.49 316.806M590.49 316.806V375.308M590.49 375.308L632.737 387.226M632.737 387.226V444.645M632.737 444.645L676.068 457.104M676.068 457.104V515.065M676.068 515.065L717.774 526.44M717.774 526.44V583.859M717.774 583.859L760.563 595.777M760.563 595.777V653.738M760.563 653.738L802.81 665.655M802.81 665.655V723.074M802.81 723.074L845.599 735.533M845.599 735.533V792.41M845.599 792.41L887.846 804.328M887.846 804.328V862.83M887.846 862.83L930.094 874.206M930.094 874.206V930.228M930.094 930.228L887.846 941.917M930.094 930.228L1101.25 978.21M887.846 941.917V999.878M887.846 941.917L1059 990.669M-471.654 941.917V999.878M-471.654 941.917L-300.497 990.669M-471.654 941.917L-429.406 930.228M-471.654 941.917V918.624L-513.901 906.707V849.83L-556.69 837.371V779.952L-598.937 768.034V710.073L-641.726 698.156V640.737L-683.432 629.362V571.401L-726.763 558.942V501.522L-769.01 489.605V431.103L-811.258 419.727V361.766L-854.047 350.391V292.971L-895.753 281.054V223.093L-938 212.801V96.3376M-471.654 999.878L-513.359 1011.8M-471.654 999.878L-300.497 1048.63M-513.359 1011.8V1069.21M-513.359 1011.8L-342.203 1060.55M-513.359 1069.21L-556.148 1080.59M-513.359 1069.21L-342.203 1117.97M-556.148 1080.59V1138.55M-556.148 1080.59L-384.992 1129.34M-556.148 1138.55L-598.396 1149.93M-556.148 1138.55L-384.992 1187.3M-598.396 1149.93V1208.43M-598.396 1149.93L-427.24 1198.68M-598.396 1208.43L-640.643 1220.35M-598.396 1208.43L-427.24 1257.18M-640.643 1220.35V1277.77M-640.643 1220.35L-469.487 1269.1M-640.643 1277.77L-683.974 1290.22M-640.643 1277.77L-469.487 1326.52M-683.974 1290.22V1348.19M-683.974 1290.22L-512.818 1338.98M-683.974 1348.19L-725.68 1359.56M-683.974 1348.19L-512.818 1396.94M-725.68 1359.56V1416.98M-725.68 1359.56L-554.523 1408.31M-725.68 1416.98L-768.469 1428.9M-725.68 1416.98L-554.523 1465.73M-768.469 1428.9V1486.86M-768.469 1428.9L-597.313 1477.65M-768.469 1486.86L-810.716 1498.78M-768.469 1486.86L-597.313 1535.61M-810.716 1498.78V1556.19M-810.716 1498.78L-639.56 1547.53M-810.716 1556.19L-853.505 1568.65M-810.716 1556.19L-639.56 1604.95M-853.505 1568.65V1625.53M-853.505 1568.65L-682.349 1617.41M-853.505 1625.53L-895.753 1637.45M-853.505 1625.53L-682.349 1674.28M-895.753 1637.45V1695.95M-895.753 1637.45L-724.596 1686.2M-895.753 1695.95L-938 1707.33M-895.753 1695.95L-724.596 1744.7M-938 1707.33V1764.75M-938 1707.33L-766.844 1756.08M-300.497 990.669V1048.63M-300.497 990.669L-258.25 978.21M-300.497 1048.63L-342.203 1060.55M-342.203 1060.55V1117.97M-342.203 1117.97L-384.992 1129.34M-384.992 1129.34V1187.3M-384.992 1187.3L-427.24 1198.68M-427.24 1198.68V1257.18M-427.24 1257.18L-469.487 1269.1M-469.487 1269.1V1326.52M-469.487 1326.52L-512.818 1338.98M-512.818 1338.98V1396.94M-512.818 1396.94L-554.523 1408.31M-554.523 1408.31V1465.73M-554.523 1465.73L-597.313 1477.65M-597.313 1477.65V1535.61M-597.313 1535.61L-639.56 1547.53M-639.56 1547.53V1604.95M-639.56 1604.95L-682.349 1617.41M-682.349 1617.41V1674.28M-682.349 1674.28L-724.596 1686.2M-724.596 1686.2V1744.7M-724.596 1744.7L-766.844 1756.08M-766.844 1756.08V1813.5M-724.596 1859V1800.5L-682.349 1788.58V1731.7L-639.56 1719.24V1661.82L-597.313 1649.91V1591.95L-554.523 1580.03V1522.61L-512.818 1511.23V1453.27L-469.487 1440.81V1383.4L-427.24 1371.48V1312.98L-384.992 1301.6V1243.64L-342.203 1232.26V1174.84L-300.497 1162.93V1104.97L-258.25 1094.67M-258.25 1094.67V978.21M-258.25 1094.67L-216.003 1104.97V1162.93L-174.297 1174.84V1232.26L-131.508 1243.64V1301.6L-89.2603 1312.98V1371.48L-47.0129 1383.4V1440.81L-3.68225 1453.27V1511.23L38.0236 1522.61V1580.03L80.8126 1591.95V1649.91L123.06 1661.82V1719.24L165.849 1731.7V1788.58L208.096 1800.5V1859M-429.406 930.228L-258.25 978.21M-429.406 930.228V874.206M-258.25 978.21L-216.003 990.669M-44.8464 999.878L-3.14062 1011.8M-44.8464 999.878L-216.003 1048.63M-3.14062 1011.8V1069.21M-3.14062 1011.8L-174.297 1060.55M-3.14062 1069.21L39.6484 1080.59M-3.14062 1069.21L-174.297 1117.97M39.6484 1080.59V1138.55M39.6484 1080.59L-131.508 1129.34M39.6484 1138.55L81.8959 1149.93M39.6484 1138.55L-131.508 1187.3M81.8959 1149.93V1208.43M81.8959 1149.93L-89.2603 1198.68M81.8959 1208.43L124.143 1220.35M81.8959 1208.43L-89.2603 1257.18M124.143 1220.35V1277.77M124.143 1220.35L-47.0129 1269.1M124.143 1277.77L167.474 1290.22M124.143 1277.77L-47.0129 1326.52M167.474 1290.22V1348.19M167.474 1290.22L-3.68225 1338.98M167.474 1348.19L209.18 1359.56M167.474 1348.19L-3.68225 1396.94M209.18 1359.56V1416.98M209.18 1359.56L38.0236 1408.31M209.18 1416.98L251.969 1428.9M209.18 1416.98L38.0236 1465.73M251.969 1428.9V1486.86M251.969 1428.9L80.8126 1477.65M251.969 1486.86L294.216 1498.78M251.969 1486.86L80.8126 1535.61M294.216 1498.78V1556.19M294.216 1498.78L123.06 1547.53M294.216 1556.19L337.005 1568.65M294.216 1556.19L123.06 1604.95M337.005 1568.65V1625.53M337.005 1568.65L165.849 1617.41M337.005 1625.53L379.253 1637.45M337.005 1625.53L165.849 1674.28M379.253 1637.45V1695.95M379.253 1637.45L208.096 1686.2M379.253 1695.95L421.5 1707.33M379.253 1695.95L208.096 1744.7M421.5 1707.33V1764.75M421.5 1707.33L250.344 1756.08M421.5 1707.33L463.747 1695.95M421.5 1707.33L592.656 1756.08M-216.003 990.669V1048.63M-216.003 1048.63L-174.297 1060.55M-174.297 1060.55V1117.97M-174.297 1117.97L-131.508 1129.34M-131.508 1129.34V1187.3M-131.508 1187.3L-89.2603 1198.68M-89.2603 1198.68V1257.18M-89.2603 1257.18L-47.0129 1269.1M-47.0129 1269.1V1326.52M-47.0129 1326.52L-3.68225 1338.98M-3.68225 1338.98V1396.94M-3.68225 1396.94L38.0236 1408.31M38.0236 1408.31V1465.73M38.0236 1465.73L80.8126 1477.65M80.8126 1477.65V1535.61M80.8126 1535.61L123.06 1547.53M123.06 1547.53V1604.95M123.06 1604.95L165.849 1617.41M165.849 1617.41V1674.28M165.849 1674.28L208.096 1686.2M208.096 1686.2V1744.7M208.096 1744.7L250.344 1756.08M250.344 1756.08V1813.5M887.846 999.878L846.141 1011.8M887.846 999.878L1059 1048.63M846.141 1011.8V1069.21M846.141 1011.8L1017.3 1060.55M846.141 1069.21L803.352 1080.59M846.141 1069.21L1017.3 1117.97M803.352 1080.59V1138.55M803.352 1080.59L974.508 1129.34M803.352 1138.55L761.104 1149.93M803.352 1138.55L974.508 1187.3M761.104 1149.93V1208.43M761.104 1149.93L932.26 1198.68M761.104 1208.43L718.857 1220.35M761.104 1208.43L932.26 1257.18M718.857 1220.35V1277.77M718.857 1220.35L890.013 1269.1M718.857 1277.77L675.526 1290.22M718.857 1277.77L890.013 1326.52M675.526 1290.22V1348.19M675.526 1290.22L846.682 1338.98M675.526 1348.19L633.82 1359.56M675.526 1348.19L846.682 1396.94M633.82 1359.56V1416.98M633.82 1359.56L804.977 1408.31M633.82 1416.98L591.031 1428.9M633.82 1416.98L804.977 1465.73M591.031 1428.9V1486.86M591.031 1428.9L762.188 1477.65M591.031 1486.86L548.784 1498.78M591.031 1486.86L762.188 1535.61M548.784 1498.78V1556.19M548.784 1498.78L719.94 1547.53M548.784 1556.19L505.995 1568.65M548.784 1556.19L719.94 1604.95M505.995 1568.65V1625.53M505.995 1568.65L677.151 1617.41M505.995 1625.53L463.747 1637.45M505.995 1625.53L677.151 1674.28M463.747 1637.45V1695.95M463.747 1637.45L634.904 1686.2M463.747 1695.95L634.904 1744.7M1059 990.669V1048.63M1059 990.669L1101.25 978.21M1059 1048.63L1017.3 1060.55M1017.3 1060.55V1117.97M1017.3 1117.97L974.508 1129.34M974.508 1129.34V1187.3M974.508 1187.3L932.26 1198.68M932.26 1198.68V1257.18M932.26 1257.18L890.013 1269.1M890.013 1269.1V1326.52M890.013 1326.52L846.682 1338.98M846.682 1338.98V1396.94M846.682 1396.94L804.977 1408.31M804.977 1408.31V1465.73M804.977 1465.73L762.188 1477.65M762.188 1477.65V1535.61M762.188 1535.61L719.94 1547.53M719.94 1547.53V1604.95M719.94 1604.95L677.151 1617.41M677.151 1617.41V1674.28M677.151 1674.28L634.904 1686.2M634.904 1686.2V1744.7M634.904 1744.7L592.656 1756.08M592.656 1756.08V1813.5M634.904 1859V1800.5L677.151 1788.58V1731.7L719.94 1719.24V1661.82L762.188 1649.91V1591.95L804.977 1580.03V1522.61L846.682 1511.23V1453.27L890.013 1440.81V1383.4L932.26 1371.48V1312.98L974.508 1301.6V1243.64L1017.3 1232.26V1174.84L1059 1162.93V1104.97L1101.25 1094.67M1101.25 1094.67V978.21M1101.25 1094.67L1143.5 1104.97V1162.93L1185.2 1174.84V1232.26L1227.99 1243.64V1301.6L1270.24 1312.98V1371.48L1312.49 1383.4V1440.81L1355.82 1453.27V1511.23L1397.52 1522.61V1580.03L1440.31 1591.95V1649.91L1482.56 1661.82V1719.24L1525.35 1731.7V1788.58L1567.6 1800.5V1859M1101.25 978.21L1272.41 930.228M1101.25 978.21L1143.5 990.669M1314.65 941.917V999.878M1314.65 941.917L1272.41 930.228M1314.65 941.917V918.624L1356.9 906.707V849.83L1399.69 837.371V779.952L1441.94 768.034V710.073L1484.73 698.156V640.737L1526.43 629.362V571.401L1569.76 558.942V501.522L1612.01 489.605V431.103L1654.26 419.727V361.766L1697.05 350.391V292.971L1738.75 281.054V223.093L1781 212.801V96.3376M1314.65 941.917L1313.57 942.226M1314.65 999.878L1356.36 1011.8M1314.65 999.878L1143.5 1048.63M1356.36 1011.8V1069.21M1356.36 1011.8L1185.2 1060.55M1356.36 1069.21L1399.15 1080.59M1356.36 1069.21L1185.2 1117.97M1399.15 1080.59V1138.55M1399.15 1080.59L1227.99 1129.34M1399.15 1138.55L1441.4 1149.93M1399.15 1138.55L1227.99 1187.3M1441.4 1149.93V1208.43M1441.4 1149.93L1270.24 1198.68M1441.4 1208.43L1483.64 1220.35M1441.4 1208.43L1270.24 1257.18M1483.64 1220.35V1277.77M1483.64 1220.35L1312.49 1269.1M1483.64 1277.77L1526.97 1290.22M1483.64 1277.77L1312.49 1326.52M1526.97 1290.22V1348.19M1526.97 1290.22L1355.82 1338.98M1526.97 1348.19L1568.68 1359.56M1526.97 1348.19L1355.82 1396.94M1568.68 1359.56V1416.98M1568.68 1359.56L1397.52 1408.31M1568.68 1416.98L1611.47 1428.9M1568.68 1416.98L1397.52 1465.73M1611.47 1428.9V1486.86M1611.47 1428.9L1440.31 1477.65M1611.47 1486.86L1653.72 1498.78M1611.47 1486.86L1440.31 1535.61M1653.72 1498.78V1556.19M1653.72 1498.78L1482.56 1547.53M1653.72 1556.19L1696.51 1568.65M1653.72 1556.19L1482.56 1604.95M1696.51 1568.65V1625.53M1696.51 1568.65L1525.35 1617.41M1696.51 1625.53L1738.75 1637.45M1696.51 1625.53L1525.35 1674.28M1738.75 1637.45V1695.95M1738.75 1637.45L1567.6 1686.2M1738.75 1695.95L1781 1707.33M1738.75 1695.95L1567.6 1744.7M1781 1707.33V1764.75M1781 1707.33L1609.84 1756.08M1143.5 990.669V1048.63M1143.5 990.669L1313.57 942.226M1143.5 1048.63L1185.2 1060.55M1185.2 1060.55V1117.97M1185.2 1117.97L1227.99 1129.34M1227.99 1129.34V1187.3M1227.99 1187.3L1270.24 1198.68M1270.24 1198.68V1257.18M1270.24 1257.18L1312.49 1269.1M1312.49 1269.1V1326.52M1312.49 1326.52L1355.82 1338.98M1355.82 1338.98V1396.94M1355.82 1396.94L1397.52 1408.31M1397.52 1408.31V1465.73M1397.52 1465.73L1440.31 1477.65M1440.31 1477.65V1535.61M1440.31 1535.61L1482.56 1547.53M1482.56 1547.53V1604.95M1482.56 1604.95L1525.35 1617.41M1525.35 1617.41V1674.28M1525.35 1674.28L1567.6 1686.2M1567.6 1686.2V1744.7M1567.6 1744.7L1609.84 1756.08M1609.84 1756.08V1813.5M1272.41 930.228V874.206M1272.41 930.228L1313.57 942.226M-724.596 60.0443V118.005M-724.596 60.0443L-895.753 108.797M-724.596 60.0443L-766.844 48.3553L-938 96.3376M-724.596 118.005L-682.891 129.922M-724.596 118.005L-895.753 166.757M-682.891 129.922V187.342M-682.891 129.922L-854.047 178.675M-682.891 187.342L-640.102 198.717M-682.891 187.342L-854.047 236.094M-640.102 198.717V256.678M-640.102 198.717L-811.258 247.469M-640.102 256.678L-597.854 268.054M-640.102 256.678L-811.258 305.43M-597.854 268.054V326.556M-597.854 268.054L-769.01 316.806M-597.854 326.556L-555.607 338.473M-597.854 326.556L-769.01 375.308M-555.607 338.473V395.893M-555.607 338.473L-726.763 387.226M-555.607 395.893L-512.276 408.352M-555.607 395.893L-726.763 444.645M-512.276 408.352V466.313M-512.276 408.352L-683.432 457.104M-512.276 466.313L-470.57 477.688M-512.276 466.313L-683.432 515.065M-470.57 477.688V535.107M-470.57 477.688L-641.726 526.44M-470.57 535.107L-427.781 547.024M-470.57 535.107L-641.726 583.859M-427.781 547.024V604.985M-427.781 547.024L-598.937 595.777M-427.781 604.985L-385.534 616.903M-427.781 604.985L-598.937 653.738M-385.534 616.903V674.322M-385.534 616.903L-556.69 665.655M-385.534 674.322L-342.745 686.781M-385.534 674.322L-556.69 723.074M-342.745 686.781V743.658M-342.745 686.781L-513.901 735.533M-342.745 743.658L-300.497 755.576M-342.745 743.658L-513.901 792.41M-300.497 755.576V814.078M-300.497 755.576L-471.654 804.328M-300.497 814.078L-471.654 862.83M-895.753 108.797V166.757M-895.753 108.797L-938 96.3376M-895.753 166.757L-854.047 178.675M-854.047 178.675V236.094M-854.047 236.094L-811.258 247.469M-811.258 247.469V305.43M-811.258 305.43L-769.01 316.806M-769.01 316.806V375.308M-769.01 375.308L-726.763 387.226M-726.763 387.226V444.645M-726.763 444.645L-683.432 457.104M-683.432 457.104V515.065M-683.432 515.065L-641.726 526.44M-641.726 526.44V583.859M-641.726 583.859L-598.937 595.777M-598.937 595.777V653.738M-598.937 653.738L-556.69 665.655M-556.69 665.655V723.074M-556.69 723.074L-513.901 735.533M-513.901 735.533V792.41M-513.901 792.41L-471.654 804.328M-471.654 804.328V862.83M-471.654 862.83L-429.406 874.206M1567.6 60.0443V118.005M1567.6 60.0443L1738.75 108.797M1567.6 60.0443L1609.84 48.3553L1781 96.3376M1567.6 118.005L1525.89 129.922M1567.6 118.005L1738.75 166.757M1525.89 129.922V187.342M1525.89 129.922L1697.05 178.675M1525.89 187.342L1483.1 198.717M1525.89 187.342L1697.05 236.094M1483.1 198.717V256.678M1483.1 198.717L1654.26 247.469M1483.1 256.678L1440.85 268.054M1483.1 256.678L1654.26 305.43M1440.85 268.054V326.556M1440.85 268.054L1612.01 316.806M1440.85 326.556L1398.61 338.473M1440.85 326.556L1612.01 375.308M1398.61 338.473V395.893M1398.61 338.473L1569.76 387.226M1398.61 395.893L1355.28 408.352M1398.61 395.893L1569.76 444.645M1355.28 408.352V466.313M1355.28 408.352L1526.43 457.104M1355.28 466.313L1313.57 477.688M1355.28 466.313L1526.43 515.065M1313.57 477.688V535.107M1313.57 477.688L1484.73 526.44M1313.57 535.107L1270.78 547.024M1313.57 535.107L1484.73 583.859M1270.78 547.024V604.985M1270.78 547.024L1441.94 595.777M1270.78 604.985L1228.53 616.903M1270.78 604.985L1441.94 653.738M1228.53 616.903V674.322M1228.53 616.903L1399.69 665.655M1228.53 674.322L1185.74 686.781M1228.53 674.322L1399.69 723.074M1185.74 686.781V743.658M1185.74 686.781L1356.9 735.533M1185.74 743.658L1143.5 755.576M1185.74 743.658L1356.9 792.41M1143.5 755.576V814.078M1143.5 755.576L1314.65 804.328M1143.5 814.078L1314.65 862.83M1738.75 108.797V166.757M1738.75 108.797L1781 96.3376M1738.75 166.757L1697.05 178.675M1697.05 178.675V236.094M1697.05 236.094L1654.26 247.469M1654.26 247.469V305.43M1654.26 305.43L1612.01 316.806M1612.01 316.806V375.308M1612.01 375.308L1569.76 387.226M1569.76 387.226V444.645M1569.76 444.645L1526.43 457.104M1526.43 457.104V515.065M1526.43 515.065L1484.73 526.44M1484.73 526.44V583.859M1484.73 583.859L1441.94 595.777M1441.94 595.777V653.738M1441.94 653.738L1399.69 665.655M1399.69 665.655V723.074M1399.69 723.074L1356.9 735.533M1356.9 735.533V792.41M1356.9 792.41L1314.65 804.328M1314.65 804.328V862.83M1314.65 862.83L1272.41 874.206" stroke="black"/>
</svg>
