<svg width="118" height="171" viewBox="0 0 118 171" fill="none" xmlns="http://www.w3.org/2000/svg">
<path d="M117 12.1363V170H97.7638H78.5276V68.8784C79.5876 56.1018 76.4825 46.9697 70.9498 41.3938C37.8402 33.4061 30.34 59.924 30.7286 74.1814V170H16.1558H1V33.9497L97.7638 1L117 12.1363Z" fill="black"/>
<path d="M97.7638 1L117 12.1363V170H97.7638M97.7638 1L1 33.9497V170H16.1558M97.7638 1V170M16.1558 170V71.5299C16.1558 59.8633 21.9849 43.424 43.5528 36.5301C54.1791 33.1335 64.3117 34.704 70.9498 41.3938M16.1558 170H30.7286V74.1814C30.34 59.924 37.8402 33.4061 70.9498 41.3938M97.7638 170H78.5276V68.8784C79.5876 56.1018 76.4825 46.9697 70.9498 41.3938" stroke="white"/>
</svg>
