<svg width="506" height="432" viewBox="0 0 506 432" fill="none" xmlns="http://www.w3.org/2000/svg">
<path d="M217 414.5L221 404M217 414.5L139 407.642M217 414.5L196.5 419.5L110 420.383L139 407.642M221 404L257 407.642M221 404L140.5 388.5M257 407.642L265 392.247M257 407.642L171.5 382.16M265 392.247L293.5 394.901M265 392.247L171.5 366.5M293.5 394.901L303.868 382.16M293.5 394.901L224 364.642M303.868 382.16L333.687 383.753M303.868 382.16L231.5 342M333.687 383.753L343.626 364.642M333.687 383.753L262.355 342M343.626 364.642L385.724 358.272M343.626 364.642L266.5 320.5M385.724 358.272V333.852M385.724 358.272L299.19 316.333M385.724 333.852L423.729 328.012M385.724 333.852L299.19 292.444M423.729 328.012V298.284M423.729 328.012L329.594 287.667M423.729 298.284L462.903 289.259M423.729 298.284L324.916 263.778M462.903 289.259V254.222M462.903 289.259L358.828 258.469M462.903 254.222L495.06 241.481M462.903 254.222L354.735 234.58M495.06 241.481L491.552 216.531M495.06 241.481L371.691 228.21M491.552 216.531L503.246 192.111M491.552 216.531L368.768 209.63M503.246 192.111L495.06 151.765M503.246 192.111L505 249.444L474.596 262.185L476.35 298.284L437.761 309.432V335.444L399.172 342.346V367.296L352.981 374.728L342.457 394.901L311.469 392.247L302.114 412.951L273.464 407.642L262.355 427.815L229.613 420.383L221 431H197.455M503.246 192.111L383.97 194.765M495.06 151.765L450.624 133.716M495.06 151.765L383.97 178.839M450.624 133.716L434.253 112.481M450.624 133.716L360.582 166.63M434.253 112.481H389.232M434.253 112.481L358.828 143.802M389.232 112.481L371.691 97.0864M389.232 112.481L333.102 143.802M371.691 97.0864L319.07 109.296M371.691 97.0864L326.086 127.877M319.07 109.296L310.884 100.272M319.07 109.296L298.606 131.062M310.884 100.272L341.872 91.7778L343.626 76.9136L371.691 71.0741L374.615 51.963L409.696 40.284L410.281 25.9506L443.023 14.8025V1M310.884 100.272L309.13 112.481L287.497 119.914M287.497 119.914L298.606 131.062M287.497 119.914V133.716M298.606 131.062L326.086 127.877M326.086 127.877L333.102 143.802M333.102 143.802H358.828M358.828 143.802L360.582 166.63M360.582 166.63L383.97 178.839M383.97 178.839V194.765M383.97 194.765L375.283 203.259M368.768 209.63L371.691 228.21M368.768 209.63L375.283 203.259M371.691 228.21L354.735 234.58M354.735 234.58L358.828 258.469M358.828 258.469L324.916 263.778M324.916 263.778L329.594 287.667M329.594 287.667L299.19 292.444M299.19 292.444V316.333M299.19 316.333L266.5 320.5M266.5 320.5L262.355 342M262.355 342H231.5M231.5 342L224 364.642M224 364.642L171.5 366.5M171.5 366.5V382.16M171.5 382.16L140.5 388.5M287.497 133.716L295.097 139.556L317.9 136.37L328.425 153.889L349.473 152.296L353.566 176.185L374.615 189.048L375.283 203.259M287.497 133.716V142.21L255.339 143.802L250.077 156.012L222.012 158.667L219.673 178.839L182.838 176.185L165.882 201.136L141.325 192.642L120.861 211.222L96.8886 199.543L57.1299 232.457L1 216V205.383M144.248 156.012V185.741M144.248 156.012L129.046 170.346M144.248 156.012L155.942 163.444M144.248 185.741L162.958 192.642M144.248 185.741L119.691 201.667M162.958 192.642L155.942 163.444M162.958 192.642L178.16 168.753M155.942 163.444L167.051 149.111M167.051 149.111L178.16 168.753M167.051 149.111L192.777 151.235M178.16 168.753L211.487 170.346M211.487 170.346L214.411 151.235M211.487 170.346L192.777 151.235M214.411 151.235L241.891 149.111M214.411 151.235L192.777 133.185M241.891 149.111V133.185M241.891 149.111L211.487 126.284M241.891 133.185L274.633 134.778M241.891 133.185L209.148 106.642M274.633 134.778L271.125 115.136M274.633 134.778L232.536 99.7407M271.125 115.136L296.267 108.235M271.125 115.136L231.367 81.6914M296.267 108.235L298.606 90.1852M296.267 108.235L255.339 79.037M298.606 90.1852L326.086 85.4074M298.606 90.1852L258.847 59.3951M326.086 85.4074L328.425 67.8889M326.086 85.4074L277.557 59.3951M328.425 67.8889L358.828 59.3951M328.425 67.8889L277.557 41.3457M358.828 59.3951L362.336 41.3457M358.828 59.3951L295.097 36.037M362.336 41.3457L395.079 30.1975M362.336 41.3457L295.097 23.8272M395.079 30.1975L393.325 16.9259M395.079 30.1975L313.223 20.1111M393.325 16.9259L443.023 1M393.325 16.9259L310.884 7.37037M443.023 1H326.086L310.884 7.37037M310.884 7.37037L313.223 20.1111M313.223 20.1111L295.097 23.8272M295.097 23.8272V36.037M295.097 36.037L277.557 41.3457M277.557 41.3457V59.3951M277.557 59.3951H258.847M258.847 59.3951L255.339 79.037M255.339 79.037L231.367 81.6914M231.367 81.6914L232.536 99.7407M232.536 99.7407L209.148 106.642M209.148 106.642L209.465 109.296M211.487 126.284L198.039 131.244M211.487 126.284L209.465 109.296M192.777 133.185V151.235M192.777 133.185L198.039 131.244M103.32 168.753L1 205.383M103.32 168.753L57.1299 219.185M103.32 168.753L23.8028 164.628M103.32 168.753L93.9652 145.395M103.32 168.753L109.167 166.895M1 205.383V163.444L23.8028 164.628M1 205.383L57.1299 219.185M57.1299 219.185L99.8121 189.988M99.8121 189.988L115.014 165.037M99.8121 189.988L119.691 201.667M115.014 165.037L129.046 170.346M115.014 165.037L109.167 166.895M129.046 170.346L119.691 201.667M23.8028 164.628L27.8956 143.802L57.3735 149.111M93.9652 145.395L57.3735 149.111M93.9652 145.395L107.998 147.519L115.014 136.37M57.3735 149.111L67.6543 116.728L86.3643 124.488M115.014 136.37L86.3643 124.488M115.014 136.37L124.369 140.086L127.877 136.37M86.3643 124.488L95.1346 113.012M95.1346 113.012L111.506 124.691L127.877 136.37M95.1346 113.012L115.014 119.914M127.877 136.37L136.647 137.963M115.014 119.914L136.647 137.963M115.014 119.914L124.369 108.765M136.647 137.963L139.571 131.062M139.571 131.062H154.188M139.571 131.062L124.369 108.765M154.188 131.062L143.079 113.012M154.188 131.062L161.204 125.222M143.079 113.012L124.369 108.765M143.079 113.012L156.527 98.1481M156.527 98.1481L161.204 125.222M156.527 98.1481L178.16 112.481M161.204 125.222L178.16 135.84M178.16 112.481V135.84M178.16 112.481L198.039 102.926M178.16 135.84L191.608 128.407M198.039 102.926L191.608 128.407M198.039 102.926L209.465 109.296M191.608 128.407L198.039 131.244M192.777 142.21L186.346 137.963L179.914 142.21L162.958 133.716L158.865 137.963L146.002 136.37L136.647 142.741L129.631 141.148L124.369 147.519L116.183 142.741L111.506 153.889H103.32L109.167 166.895M139 407.642L140.5 388.5" stroke="white"/>
</svg>
