<svg width="119" height="171" viewBox="0 0 119 171" fill="none" xmlns="http://www.w3.org/2000/svg">
<path d="M118 12.1363V170H98.598H79.196V68.8784C80.2651 56.1018 77.1332 46.9697 71.5528 41.3938C38.1578 33.4061 30.593 59.924 30.9849 74.1814V170H16.2864H1V33.9497L98.598 1L118 12.1363Z" fill="black"/>
<path d="M98.598 1L118 12.1363V170H98.598M98.598 1L1 33.9497V170H16.2864M98.598 1V170M16.2864 170V71.5299C16.2864 59.8633 22.1658 43.424 43.9196 36.5301C54.6375 33.1335 64.8574 34.704 71.5528 41.3938M16.2864 170H30.9849V74.1814C30.593 59.924 38.1578 33.4061 71.5528 41.3938M98.598 170H79.196V68.8784C80.2651 56.1018 77.1332 46.9697 71.5528 41.3938" stroke="white"/>
</svg>
