<svg width="119" height="172" viewBox="0 0 119 172" fill="none" xmlns="http://www.w3.org/2000/svg">
<path d="M118 12.2022V171H98.598H79.196V69.2801C80.2651 56.4278 77.1332 47.2417 71.5528 41.6329C38.1578 33.5979 30.593 60.2727 30.9849 74.6144V171H16.2864H1V34.1447L98.598 1L118 12.2022Z" fill="black"/>
<path d="M98.598 1L118 12.2022V171H98.598M98.598 1L1 34.1447V171H16.2864M98.598 1V171M16.2864 171V71.9472C16.2864 60.2116 22.1658 43.675 43.9196 36.7403C54.6375 33.3237 64.8574 34.9035 71.5528 41.6329M16.2864 171H30.9849V74.6144C30.593 60.2727 38.1578 33.5979 71.5528 41.6329M98.598 171H79.196V69.2801C80.2651 56.4278 77.1332 47.2417 71.5528 41.6329" stroke="white"/>
</svg>
