<svg width="1031" height="997" viewBox="0 0 1031 997" fill="none" xmlns="http://www.w3.org/2000/svg">
<path d="M123.124 996V526.132M123.124 996L70.5349 966.251V925.346M123.124 996L170.455 971.773M401.264 473.798L123.124 526.132M401.264 473.798L347.506 456.267L70.5349 505.672M401.264 473.798V511.515V551.358M123.124 526.132L70.5349 505.672M70.5349 505.672V624.137M170.455 971.773L363.867 872.772M170.455 971.773V925.346M363.867 872.772L401.264 853.629V615.82M363.867 872.772L317.705 856.817M363.867 872.772V628.918M317.705 856.817L170.455 925.346M317.705 856.817V822.818M317.705 578.362C316.537 562.464 306.954 538.448 277.971 537.339M277.971 537.339L261.88 540.709C208.609 551.866 170.455 598.84 170.455 653.266V654.948M277.971 537.339C299.092 532.852 344.789 532.843 358.608 568.696M170.455 925.346V887.628M317.705 822.818L170.455 887.628M317.705 822.818L264.532 815.912M317.705 822.818V642.933M170.455 887.628V856.02M264.532 815.912V785.632M264.532 815.912L170.455 856.02M264.532 785.632L224.213 779.257M264.532 785.632L170.455 824.412M224.213 779.257V753.758M224.213 779.257L170.455 795.725M224.213 753.758L209.02 732.508M224.213 753.758L170.455 764.382M209.02 732.508V708.603M209.02 732.508L170.455 737.289M209.02 732.508L242.327 703.822V683.104L267.453 674.604L271.543 658.136L301.344 656.542L308.356 644.324L317.705 642.933M209.02 708.603L229.472 696.384M209.02 708.603H170.455M229.472 696.384V676.198M229.472 696.384L170.455 689.478M229.472 676.198L258.688 667.167M229.472 676.198L170.455 654.948M258.688 667.167L264.532 648.573M258.688 667.167L173.376 629.98M264.532 648.573H292.579M264.532 648.573L182.141 606.075M292.579 648.573L301.344 637.417M292.579 648.573L214.864 602.356M301.344 637.417L225.382 585.357M301.344 637.417L317.705 634.984L333.482 632.636M333.482 632.636L344 618.293M333.482 632.636L317.705 621.435L272.128 589.075M344 618.293L363.867 621.504L370.295 622.543M344 618.293L317.705 597.803L286.736 573.669M370.295 622.543L380.813 605.544M370.295 622.543L321.796 578.982M380.813 605.544L401.264 608.731L414.119 610.325M380.813 605.544L363.867 591.731L333.482 563.576M414.119 610.325L429.312 590.669M414.119 610.325L367.373 570.482M429.312 590.669L463.203 597.044M429.312 590.669L401.264 563.576L386.656 549.233M463.203 597.044L473.721 580.576M463.203 597.044L410.029 552.42M473.721 580.576L507.027 585.357M473.721 580.576L420.547 539.139M507.027 585.357L511.702 563.576M507.027 585.357L445.089 545.514M511.702 563.576L543.256 568.888M511.702 563.576L456.191 525.859M543.256 568.888L560.201 545.514M543.256 568.888L487.16 532.765M560.201 545.514L592.923 563.576L612.206 537.339M560.201 545.514L533.322 529.577M612.206 537.339L642.007 552.42L662.458 519.348M612.206 537.339L583.282 521.87M662.458 519.348L698.687 537.339L718.554 504.078M662.458 519.348L635.579 506.401M718.554 504.078L757.704 519.348L779.324 488.672M718.554 504.078L693.428 491.943M779.324 488.672L816.136 490.797M779.324 488.672L715.048 461.048M816.136 490.797L836.588 461.048M816.136 490.797L754.198 467.423M836.588 461.048L871.063 468.485M836.588 461.048L774.649 437.143M871.063 468.485L881.581 432.893M871.063 468.485L809.124 441.392M881.581 432.893H916.641M881.581 432.893L816.136 410.581M916.641 432.893L920.731 402.081M916.641 432.893L844.768 410.581M920.731 402.081H955.206M920.731 402.081L844.768 382.957M955.206 402.081L951.116 375.519M955.206 402.081L876.906 382.957M951.116 375.519L985.007 365.426M951.116 375.519L871.063 359.582M985.007 365.426L968.646 337.802M985.007 365.426L896.773 349.489M968.646 337.802L1004.29 320.271M968.646 337.802L881.581 320.271M1004.29 320.271L985.007 293.178M1004.29 320.271L903.201 305.397M985.007 293.178L1020.07 274.054M985.007 293.178L891.515 280.429M1020.07 274.054L1008.96 251.211M1020.07 274.054L916.641 268.742M1008.96 251.211L1028.25 229.43M1008.96 251.211L900.279 248.023M1028.25 229.43L1004.29 209.775M1028.25 229.43H916.641M1028.25 229.43V237.399L1020.07 251.211L1030 275.648L997.278 296.366L1020.07 325L985.007 343L1001 368L962.5 382.957L965.5 410.581L930.5 415L922.484 439.267L888.593 441.392L876.906 476.454L840.678 468.485L824.901 497.172L783.998 495.578L762.378 527.452L722.644 512.578L702.193 545.514L665.38 529.577L645.513 560.92L614.543 547.108L595.261 574.201L561.954 556.139L550.852 577.388L518.129 570.482L511.702 591.731L477.811 589.075L469.046 605.544L432.818 599.169L418.794 618.293L401.264 615.82M1004.29 209.775V187.994M1004.29 209.775L891.515 217.212M1004.29 187.994L968.646 174.182M1004.29 187.994L891.515 197.025M968.646 174.182V157.714M968.646 174.182L856.455 185.338M968.646 157.714L938.845 147.089M968.646 157.714L856.455 167.276M938.845 147.089L931.833 126.902M938.845 147.089L814.968 157.714M931.833 126.902L900.279 117.871M931.833 126.902L809.124 135.402M900.279 117.871L896.189 100.872M900.279 117.871L782.83 126.902M896.189 100.872L863.467 93.9658M896.189 100.872L781.661 109.372M863.467 93.9658L856.455 79.0913M863.467 93.9658L761.794 105.122M856.455 79.0913L833.082 69.5291M856.455 79.0913L761.794 85.9973M833.082 69.5291V50.4047M833.082 69.5291H744.848M833.082 50.4047L744.848 42M833.082 50.4047L814.968 32.874M814.968 32.874L814.383 14.8121M814.968 32.874L714 28.5M814.968 32.874L848.274 18.5V9.25V1M814.383 14.8121L714 12M814.383 14.8121L848.274 1M714 12V28.5M714 12L731.409 1H848.274M714 28.5V42L735.5 47.5V69.5291L750 88.5V113.09L773 117.871V132L802.5 147.089L809.124 163.026L850.027 170.995L848.274 187.994L885.671 200.744V220.399L913.368 233.149M714 28.5L744.848 42M744.848 42V69.5291M744.848 69.5291L761.794 85.9973M761.794 85.9973V105.122M761.794 105.122L781.661 109.372M781.661 109.372L782.83 126.902M782.83 126.902L809.124 135.402M809.124 135.402L814.968 157.714M814.968 157.714L856.455 167.276M856.455 167.276V185.338M856.455 185.338L891.515 197.025M891.515 197.025V217.212M891.515 217.212L916.641 229.43M916.641 229.43L913.368 233.149M900.279 248.023L916.641 268.742M900.279 248.023L913.368 233.149M916.641 268.742L891.515 280.429M891.515 280.429L903.201 305.397M903.201 305.397L881.581 320.271M881.581 320.271L896.773 349.489M896.773 349.489L871.063 359.582M871.063 359.582L876.906 382.957M876.906 382.957H844.768M844.768 382.957V410.581M844.768 410.581H816.136M816.136 410.581L809.124 441.392M809.124 441.392L774.649 437.143M774.649 437.143L754.198 467.423M715.048 461.048L754.198 467.423M715.048 461.048L693.428 491.943M635.579 506.401L608.7 493.453L583.282 521.87M635.579 506.401L662.458 476.985L693.428 491.943M583.282 521.87L554.358 506.401L533.322 529.577M533.322 529.577L502.937 512.578L487.16 532.765M487.16 532.765L456.191 525.859M456.191 525.859L445.089 545.514M420.547 539.139L445.089 545.514M420.547 539.139L410.029 552.42M410.029 552.42L401.264 551.358M386.656 549.233L401.264 551.358M386.656 549.233L367.373 570.482M333.482 563.576L321.796 578.982M333.482 563.576L358.608 568.696M367.373 570.482L358.608 568.696M321.796 578.982L286.736 573.669M286.736 573.669L272.128 589.075M272.128 589.075L225.382 585.357M225.382 585.357L214.864 602.356M214.864 602.356L187.4 596.513M170.455 654.948V689.478M170.455 689.478V708.603M70.5349 677.791L46.5775 674.604M70.5349 677.791V708.603M70.5349 677.791V629.98M46.5775 674.604L12.1022 711.259M46.5775 674.604L58.8484 624.137M12.1022 711.259L9.76491 747.914M12.1022 711.259L70.5349 708.603M9.76491 747.914L70.5349 744.195M9.76491 747.914L43.0716 779.257M9.76491 747.914V765.976L19.6985 780.851L1 843.536L43.0716 872.772L46.5775 910.471L70.5349 925.346M70.5349 744.195V708.603M70.5349 744.195V776.069M170.455 737.289V708.603M170.455 737.289V764.382M43.0716 779.257L70.5349 776.069M43.0716 779.257L27.879 833.443M70.5349 776.069V820.693M170.455 764.382V795.725M27.879 833.443L70.5349 820.693M27.879 833.443L70.5349 856.817M70.5349 820.693V856.817M170.455 795.725V824.412M70.5349 856.817V891.347V925.346M170.455 824.412V856.02M58.8484 624.137L70.5349 629.98M58.8484 624.137H70.5349M70.5349 629.98V624.137M317.705 642.933L340.494 639.542L348.09 627.324L363.867 628.918M363.867 628.918L374.385 629.98L384.903 613.512L401.264 615.82" stroke="white"/>
</svg>
