<svg width="675" height="340" viewBox="0 0 675 340" fill="none" xmlns="http://www.w3.org/2000/svg">
<path d="M488.647 254.633L561.151 290.5M488.647 254.633L516.129 250.388L579.277 280.633M488.647 254.633V280.633M561.151 290.5L579.277 280.633M561.151 290.5L563.49 303M579.277 280.633L581.616 256.755M581.616 256.755L613.19 241.367M581.616 256.755L543.61 235V213.775L613.19 241.367M613.19 241.367V214.837M613.19 214.837L650.027 197.857M613.19 214.837L543.61 188.837L561.151 181.408M650.027 197.857L642.426 165.49M650.027 197.857L561.151 181.408M642.426 165.49L660.552 146.388M642.426 165.49L553.55 156.469M660.552 146.388L657.043 114.551M660.552 146.388L576.938 143.735M657.043 114.551L664.06 92.7959M657.043 114.551L568.752 122.51M664.06 92.7959L652.95 53M664.06 92.7959L578.692 105.531M664.06 92.7959L674 156.469L657.043 174.51L664.06 209.531L623.13 224.388L624.884 250.388L589.802 264.184L586.878 286.469L572.48 294L576.938 307L555.889 313.5L563.49 328.5L543 339M652.95 53L614.944 41.8571M652.95 53L578.692 92.7959M614.944 41.8571L583.37 15.8571M614.944 41.8571L563.49 85.898M583.37 15.8571L542.44 27.5306M583.37 15.8571L555.889 67.8571M542.44 27.5306L511.451 12.6735M542.44 27.5306L530.162 76.8775M511.451 12.6735L490.401 27.5306L493.91 73.1633M511.451 12.6735L508.527 60.4286M493.91 73.1633L508.527 60.4286M493.91 73.1633L526.069 90.6735L547.703 82.7143L555.889 97.0408L568.752 100.755L572.48 116.143M508.527 60.4286L530.162 76.8775M530.162 76.8775L555.889 67.8571M555.889 67.8571L563.49 85.898M563.49 85.898L578.692 92.7959M578.692 92.7959V105.531M578.692 105.531L572.48 116.143M568.752 122.51L576.938 143.735M568.752 122.51L572.48 116.143M576.938 143.735L553.55 156.469M553.55 156.469L561.151 181.408M483.97 75.8163L469.937 33.898L443.04 30.7143M483.97 75.8163L457.658 70.5102M483.97 75.8163L476.368 90.6735L448.887 85.898M443.04 30.7143L430.761 48.2245L448.887 85.898M443.04 30.7143L457.658 70.5102M448.887 85.898L457.658 70.5102M435.439 97.0408L407.957 60.4286L371.121 62.551M435.439 97.0408L430.761 119.327L396.848 116.143M435.439 97.0408H401.526M396.848 116.143L401.526 97.0408M396.848 116.143L367.028 85.898L371.121 62.551M401.526 97.0408L371.121 62.551M371.121 136.837C360.011 124.81 337.325 100.755 335.454 100.755L307.387 99.1633M371.121 136.837L365.858 157.531L337.208 156.469M371.121 136.837H340.716M337.208 156.469L300.371 124.633L307.387 99.1633M337.208 156.469L340.716 136.837M307.387 99.1633L340.716 136.837M320.251 176.102L287.507 136.837H253.01M320.251 176.102L315.573 198.388H283.414M320.251 176.102L289.846 174.51M283.414 198.388L248.332 163.898L253.01 136.837M283.414 198.388L289.846 174.51M253.01 136.837L289.846 174.51M209.156 167.612L235.468 170.796L274.059 219.082M209.156 167.612L241.315 217.49M209.156 167.612L201.555 190.429L229.621 243.49M274.059 219.082L241.315 217.49M274.059 219.082L267.627 237.122L229.621 243.49M241.315 217.49L229.621 243.49M214.419 248.796L181.09 247.735M214.419 248.796L191.615 190.429L170.566 179.816M214.419 248.796L173.443 280.633L123.158 271.082L66.4417 293.898L38.3757 240.306L14.9873 223.327L11.4791 198.388M181.09 247.735L165.258 262.592M181.09 247.735L170.566 179.816M165.258 262.592L123.158 254.102M165.258 262.592L153.609 198.388M123.158 254.102L72.2888 278.51M123.158 254.102L144.838 187.776M72.2888 278.51L48.3157 225.98M72.2888 278.51L129.636 196.796M48.3157 225.98L11.4791 198.388M48.3157 225.98L133.144 176.102M11.4791 198.388L1 181.408M11.4791 198.388L112.679 176.102M1 181.408L45.4379 146.388M1 181.408L112.679 156.469M45.4379 146.388L34.9131 119.327M45.4379 146.388L141.915 136.837M34.9131 119.327L72.3345 99.6939M34.9131 119.327L144.838 116.143M72.3345 99.6939L64.7333 79.5306M72.3345 99.6939L170.566 97.0408M64.7333 79.5306L170.566 75.8163M64.7333 79.5306L108.002 67.8571M138.407 30.1837C138.407 22.5782 138.407 7.36735 138.407 7.36735M138.407 30.1837L245.993 32.3061M138.407 30.1837L98.6464 39.2041M138.407 7.36735L176.997 1H293.354M138.407 7.36735L245.993 13.2041M293.354 1V17.9796L262.365 28.0612V42.3878L229.621 51.4082V79.5306L187.522 85.898V104.469L161.21 119.327V143.735L126.128 163.898V176.102M293.354 1L245.993 13.2041M245.993 13.2041V32.3061M245.993 32.3061L214.419 42.3878M170.566 75.8163V97.0408M170.566 75.8163L214.419 62.551M170.566 97.0408L144.838 116.143M144.838 116.143L141.915 136.837M141.915 136.837L112.679 156.469M112.679 156.469V176.102M112.679 176.102H133.144M133.144 176.102L129.636 196.796M129.636 196.796L144.838 187.776M144.838 187.776L153.609 198.388M153.609 198.388L170.566 179.816M108.002 67.8571L98.6464 39.2041M108.002 67.8571L214.419 62.551M98.6464 39.2041L214.419 42.3878M214.419 42.3878V62.551M488.647 280.633L467.5 286.469M488.647 280.633L563.49 303M467.5 286.469V313.5M467.5 286.469L547.703 307M467.5 313.5L458 320.5M467.5 313.5L550.5 319M458 320.5L457.5 339H504.5H543M458 320.5L543 324M543 339V324M543 324L550.5 319M550.5 319L547.703 307M547.703 307L563.49 303" stroke="white"/>
</svg>
