<svg width="543" height="437" viewBox="0 0 543 437" fill="none" xmlns="http://www.w3.org/2000/svg">
<path d="M470.5 408.5L431 421L344 419.5L371.5 406.5M470.5 408.5L371.5 406.5M470.5 408.5L472.5 395M371.5 406.5V390M371.5 390L472.5 395M371.5 390L406.5 380.277M472.5 395L501.059 388.5M501.059 388.5L406.5 380.277M501.059 388.5V367.484M406.5 380.277V358.5M406.5 358.5L501.059 367.484M406.5 358.5L448.264 342.52M501.059 367.484L523.284 354.205M523.284 354.205L448.264 342.52M523.284 354.205L512.172 328.711M448.264 342.52L443 328.711M443 328.711H512.172M443 328.711L461.289 310.652M512.172 328.711L529.133 311.714M529.133 311.714L461.289 310.652M529.133 311.714L517.436 287.813M461.289 310.652L455.44 294.718M455.44 294.718L517.436 287.813M455.44 294.718L457.487 286.22M517.436 287.813L522.115 270.286M459.534 277.722L522.115 270.286M459.534 277.722L457.195 264.974M459.534 277.722L457.487 286.22M522.115 270.286L519.775 251.696M522.115 270.286L542 313.839L525.624 330.835L536.736 355.799L510.417 372.795L513.926 402.007L484.5 406.5L481 420.5L431.461 436M457.195 264.974L519.775 251.696M457.195 264.974L447.252 253.821M519.775 251.696L491.117 238.949M491.117 238.949L447.252 253.821M491.117 238.949L487.608 215.579M447.252 253.821L446.082 235.762M446.082 235.762L487.608 215.579M446.082 235.762L420.933 229.388M487.608 215.579L454.27 209.736M454.27 209.736L420.933 229.388M454.27 209.736L451.931 193.271M420.933 229.388L416.839 213.454M416.839 213.454L451.931 193.271M416.839 213.454H392.275M451.931 193.271H419.178M392.275 213.454L419.178 193.271M392.275 213.454L385.256 196.989M419.178 193.271L416.839 175.744M416.839 175.744L385.256 196.989M416.839 175.744L388.181 178.93M385.256 196.989L356.598 199.114M356.598 199.114L348.41 185.835M356.598 199.114L388.181 178.93M348.41 185.835L379.992 163.527M348.41 185.835H316.242M379.992 163.527L388.181 178.93M379.992 163.527L353.089 165.652M316.242 185.835L353.089 165.652M316.242 185.835L308.639 169.901M353.089 165.652L344.316 154.498M344.316 154.498L308.639 169.901M344.316 154.498L316.242 157.154M308.639 169.901L278.811 175.744M278.811 175.744L316.242 157.154M278.811 175.744L269.453 160.341M316.242 157.154L303.375 142.813M303.375 142.813L269.453 160.341M303.375 142.813H261.85M269.453 160.341L226.173 161.934M226.173 161.934L261.85 142.813M226.173 161.934L213.306 149.718M261.85 142.813L256.586 128.473M256.586 128.473L213.306 132.19M256.586 128.473L213.306 149.718M213.306 132.19L208.042 114.132M213.306 132.19L166.517 151.842M208.042 114.132L175.875 116.256M208.042 114.132L160.083 135.908M175.875 116.256L168.271 97.6667M175.875 116.256L110.37 135.908M168.271 97.6667H144.877M168.271 97.6667L105.691 118.381M144.877 97.6667L139.613 81.2015M144.877 97.6667L59.4865 118.381M139.613 81.2015L113.294 72.1722M139.613 81.2015L46.6195 97.6667M113.294 72.1722L110.37 56.7692M113.294 72.1722L11.5276 81.2015M113.294 72.1722L141.952 46.6777L138.443 39.2418L163.008 34.9927V20.1209L190.496 13.7473V1M110.37 56.7692L122.067 42.4286M110.37 56.7692L1 55.1758M122.067 42.4286L119.728 27.0256M122.067 42.4286L15.6216 28.0879M119.728 27.0256L148.386 22.7766M119.728 27.0256L16.7914 9.49817M148.386 22.7766L146.631 9.49817M148.386 22.7766L46.6195 9.49817M146.631 9.49817L190.496 1M146.631 9.49817L48.9589 1M190.496 1H48.9589M48.9589 1L46.6195 9.49817M46.6195 9.49817H16.7914M16.7914 9.49817L15.6216 28.0879M15.6216 28.0879L1 55.1758M1 55.1758L11.5276 81.2015M1 55.1758L5.09405 100.322L39.0162 112.538L42.5254 133.784L93.9935 137.502L99.2573 155.029L148.386 151.842L154.819 167.245H204.533L215.061 181.055L256.586 178.399L265.944 193.271L296.942 190.084L306.884 206.018L339.052 200.707L343.731 214.516L377.068 213.454L382.332 229.388L407.481 227.795L410.405 241.073L433.8 246.916V259.663L450.176 270.286L457.487 286.22M11.5276 81.2015L46.6195 97.6667M46.6195 97.6667L59.4865 118.381M59.4865 118.381H105.691M105.691 118.381L110.37 135.908M110.37 135.908H160.083M160.083 135.908L166.517 151.842M166.517 151.842L213.306 149.718" stroke="white"/>
</svg>
