<svg width="117" height="171" viewBox="0 0 117 171" fill="none" xmlns="http://www.w3.org/2000/svg">
<path d="M116 12.1363V170H96.9296H77.8593V68.8784C78.9101 56.1018 75.8317 46.9697 70.3467 41.3938C37.5226 33.4061 30.0871 59.924 30.4724 74.1814V170H16.0251H1V33.9497L96.9296 1L116 12.1363Z" fill="black"/>
<path d="M96.9296 1L116 12.1363V170H96.9296M96.9296 1L1 33.9497V170H16.0251M96.9296 1V170M16.0251 170V71.5299C16.0251 59.8633 21.804 43.424 43.1859 36.5301C53.7206 33.1335 63.7659 34.704 70.3467 41.3938M16.0251 170H30.4724V74.1814C30.0871 59.924 37.5226 33.4061 70.3467 41.3938M96.9296 170H77.8593V68.8784C78.9101 56.1018 75.8317 46.9697 70.3467 41.3938" stroke="white"/>
</svg>
