<svg width="533" height="437" viewBox="0 0 533 437" fill="none" xmlns="http://www.w3.org/2000/svg">
<path d="M253.356 385.012L276.139 386.076M253.356 385.012L193.5 348.5M253.356 385.012L249.201 393.127M276.139 386.076L283.149 361.614M276.139 386.076L222.5 341.938M283.149 361.614H307.099M283.149 361.614L228.238 328M307.099 361.614L312.941 341.938M307.099 361.614L255.109 318.007M312.941 341.938L333.97 340.342M312.941 341.938L258 301.522M333.97 340.342L340.98 321.198M333.97 340.342L281.396 295.14M340.98 321.198L365.515 323.325M340.98 321.198L287.238 276.528M365.515 323.325L373.693 299.395M365.515 323.325L308.852 279.719M373.693 299.395L402.317 301.522M373.693 299.395L317.03 259.511M402.317 301.522L404.653 285.037M402.317 301.522L338.059 259.511M404.653 285.037L532 248.875M404.653 285.037L340.98 243.026M532 248.875V267.488L419.257 299.395L415.752 318.007L381.871 314.816L373.693 337.683L349.158 335.024L343.317 354.7L322.287 353.637L317.03 374.908H293.079L287.238 398.307L262.119 393.521L255.109 409L235 407.5L228.238 422L208.5 418.5L204.5 430L187.5 435.5V423.5M532 248.875L444.376 222.286M190 368L193.5 348.5M190 368H144M190 368L249.201 393.127M193.5 348.5L222.5 341.938M222.5 341.938L228.238 328M228.238 328L255.109 318.007M255.109 318.007L258 301.522M258 301.522L281.396 295.14M281.396 295.14L287.238 276.528M287.238 276.528L308.852 279.719M308.852 279.719L317.03 259.511M317.03 259.511H338.059M338.059 259.511L327.545 243.026H299.505L294.248 228.667L255.109 226.008L253.356 208.46H216.554L204.871 189.315H163.98L159.891 175.489L120.752 166.449L117.832 156.876L2.16832 114.865L1 90.9351M340.98 243.026L444.376 222.286M340.98 243.026V230.794M444.376 222.286L440.871 210.587M1 90.9351L134.188 142.518M1 90.9351L128.931 68.6001M134.188 142.518L137.109 158.472M134.188 142.518L249.267 102.103M137.109 158.472L171.574 163.258M137.109 158.472L249.267 119.651M171.574 163.258L176.832 177.616M171.574 163.258L289.574 126.565M176.832 177.616H222.98M176.832 177.616L292.495 140.391M222.98 177.616L228.238 196.76M222.98 177.616L322.871 152.622M228.238 196.76H270.297M228.238 196.76L321.119 166.449M270.297 196.76L267.96 215.904M270.297 196.76L362.594 171.766M267.96 215.904H305.347M267.96 215.904L362.594 187.188M305.347 215.904L308.267 228.667M305.347 215.904L398.228 191.974M308.267 228.667L340.98 230.794M308.267 228.667L401.149 208.46M340.98 230.794L440.871 210.587M440.871 210.587L401.149 208.46M401.149 208.46L398.228 191.974M398.228 191.974L362.594 187.188M362.594 187.188V171.766M362.594 171.766L321.119 166.449M321.119 166.449L322.871 152.622M322.871 152.622L292.495 140.391M292.495 140.391L289.574 126.565M289.574 126.565L249.267 119.651M249.267 119.651L265.04 114.334V98.3801L292.495 93.0622V80.2994L314.693 78.1722L312.941 63.2822L347.406 57.9644L349.743 43.6062H383.04L388.881 31.3752L428.02 19.1441V1M249.267 102.103L128.931 68.6001M249.267 102.103L248.099 86.6808M128.931 68.6001V52.1148M248.099 86.6808L128.931 52.1148M248.099 86.6808L269.713 85.0854M128.931 52.1148L176.832 53.7101M176.832 53.7101V39.3519M176.832 53.7101L269.713 85.0854M176.832 39.3519H216.554M176.832 39.3519L269.713 68.6001M216.554 39.3519L218.891 24.9937M216.554 39.3519L292.495 67.0048M218.891 24.9937H249.267M218.891 24.9937L296.584 52.1148M249.267 24.9937L251.02 12.7627M249.267 24.9937L334.554 49.4558M251.02 12.7627H280.228M251.02 12.7627L334.554 36.693M280.228 12.7627V1M280.228 12.7627L369.02 32.9705M280.228 1L374.277 17.5488M280.228 1H428.02M374.277 17.5488L369.02 32.9705M374.277 17.5488L428.02 1M369.02 32.9705L334.554 36.693M334.554 36.693V49.4558M334.554 49.4558L296.584 52.1148M296.584 52.1148L292.495 67.0048M292.495 67.0048L269.713 68.6001M269.713 68.6001V85.0854M249 393.521L249.201 393.127M249.201 393.127L222.5 398.307M222.5 398.307V409M222.5 398.307L144 368M222.5 409L195 412.5M222.5 409L140.5 382M195 412.5V421M195 412.5L116.5 389M195 421L187.5 423.5M195 421L116.5 409M187.5 423.5L100.5 422L116.5 409M116.5 409V389M116.5 389L140.5 382M140.5 382L144 368" stroke="white"/>
</svg>
